<svg xmlns="http://www.w3.org/2000/svg" xmlns:xlink="http://www.w3.org/1999/xlink" viewBox="0 0 777.12 613.17"><defs><style>.cls-1,.cls-50,.cls-55,.cls-57{fill:none;}.cls-2{isolation:isolate;}.cls-3{clip-path:url(#clip-path);}.cls-4{mix-blend-mode:color-dodge;fill:url(#radial-gradient);}.cls-5{fill:url(#linear-gradient);}.cls-6{fill:url(#linear-gradient-2);}.cls-7{fill:url(#linear-gradient-3);}.cls-8{fill:url(#linear-gradient-4);}.cls-9{fill:url(#linear-gradient-5);}.cls-10{fill:url(#linear-gradient-6);}.cls-11{fill:url(#linear-gradient-7);}.cls-12,.cls-14{fill:#fff;}.cls-12,.cls-98{mix-blend-mode:overlay;}.cls-13{fill:#fcfcfa;}.cls-15{fill:url(#linear-gradient-8);}.cls-16{fill:url(#linear-gradient-9);}.cls-17{fill:url(#linear-gradient-10);}.cls-18{fill:url(#linear-gradient-11);}.cls-19{fill:url(#linear-gradient-12);}.cls-20{fill:url(#linear-gradient-13);}.cls-21{fill:url(#linear-gradient-14);}.cls-22{fill:#bbe4ff;}.cls-23{fill:#0096ea;}.cls-24{fill:#080749;}.cls-25{fill:#f1bf9c;}.cls-26{fill:url(#linear-gradient-15);}.cls-27{fill:url(#linear-gradient-16);}.cls-28{fill:#070644;}.cls-29{fill:url(#linear-gradient-17);}.cls-30{fill:#191968;}.cls-31,.cls-32,.cls-68,.cls-83,.cls-84,.cls-93{opacity:0.33;}.cls-31{fill:url(#linear-gradient-18);}.cls-32{fill:url(#linear-gradient-19);}.cls-33{fill:#150b6d;}.cls-34{fill:url(#linear-gradient-20);}.cls-35{fill:url(#linear-gradient-21);}.cls-36{fill:url(#linear-gradient-22);}.cls-37{fill:url(#linear-gradient-23);}.cls-38{fill:url(#linear-gradient-24);}.cls-39{fill:url(#linear-gradient-25);}.cls-40{fill:url(#linear-gradient-26);}.cls-41{fill:url(#linear-gradient-27);}.cls-42{fill:url(#linear-gradient-28);}.cls-43{fill:url(#linear-gradient-29);}.cls-44{fill:url(#linear-gradient-30);}.cls-45{fill:url(#linear-gradient-31);}.cls-46{fill:url(#linear-gradient-32);}.cls-47{fill:url(#linear-gradient-33);}.cls-48{fill:url(#linear-gradient-34);}.cls-49{fill:url(#linear-gradient-35);}.cls-50,.cls-55,.cls-57{stroke-linecap:round;}.cls-50,.cls-55{stroke-linejoin:round;}.cls-50{stroke-dasharray:2 4;stroke:url(#linear-gradient-36);}.cls-51{fill:url(#linear-gradient-37);}.cls-52{fill:url(#linear-gradient-38);}.cls-53{fill:url(#linear-gradient-39);}.cls-54{fill:url(#linear-gradient-40);}.cls-55{stroke-dasharray:2 4;stroke:url(#linear-gradient-41);}.cls-56{fill:url(#linear-gradient-42);}.cls-57{stroke:#fff;stroke-miterlimit:10;stroke-width:0.72px;}.cls-58{fill:url(#linear-gradient-43);}.cls-59{fill:url(#linear-gradient-44);}.cls-60{fill:url(#linear-gradient-45);}.cls-61{fill:url(#linear-gradient-46);}.cls-62{fill:url(#linear-gradient-47);}.cls-63{fill:url(#linear-gradient-48);}.cls-64{fill:url(#linear-gradient-49);}.cls-65{fill:url(#linear-gradient-50);}.cls-66{fill:#ffd1a4;}.cls-67{fill:#f2ba88;}.cls-68{fill:url(#linear-gradient-51);}.cls-69{fill:#f6f9ff;}.cls-70{fill:url(#linear-gradient-52);}.cls-71{fill:#fffff9;}.cls-72{fill:url(#linear-gradient-53);}.cls-73{fill:#100942;}.cls-74{fill:#301da0;}.cls-75{fill:url(#linear-gradient-54);}.cls-76{fill:url(#linear-gradient-55);}.cls-77{fill:url(#linear-gradient-56);}.cls-78{fill:url(#linear-gradient-57);}.cls-79{fill:url(#linear-gradient-58);}.cls-80{fill:url(#linear-gradient-59);}.cls-81{fill:url(#linear-gradient-60);}.cls-82{fill:#f4ccb0;}.cls-83{fill:url(#linear-gradient-61);}.cls-84{fill:url(#linear-gradient-62);}.cls-85{fill:url(#linear-gradient-63);}.cls-86{fill:#e3edfd;}.cls-87{fill:url(#linear-gradient-64);}.cls-88{fill:#afe1ff;}.cls-89{mix-blend-mode:multiply;opacity:0.95;fill:url(#linear-gradient-65);}.cls-90{fill:url(#linear-gradient-66);}.cls-91{fill:url(#linear-gradient-67);}.cls-92{fill:#300e70;}.cls-93{fill:url(#linear-gradient-68);}.cls-94{fill:url(#linear-gradient-69);}.cls-95{fill:url(#linear-gradient-70);}.cls-96{fill:url(#linear-gradient-71);}.cls-97{mix-blend-mode:screen;opacity:0.8;fill:url(#linear-gradient-72);}.cls-100,.cls-112,.cls-99{opacity:0.5;}.cls-99{fill:url(#linear-gradient-73);}.cls-100{fill:url(#linear-gradient-74);}.cls-101{fill:url(#linear-gradient-75);}.cls-102,.cls-103,.cls-104,.cls-105{opacity:0.3;}.cls-102{fill:url(#linear-gradient-76);}.cls-103{fill:url(#linear-gradient-77);}.cls-104{fill:url(#linear-gradient-78);}.cls-105{fill:url(#linear-gradient-79);}.cls-106{fill:url(#linear-gradient-80);}.cls-107{fill:url(#linear-gradient-81);}.cls-108{fill:url(#linear-gradient-82);}.cls-109{fill:url(#linear-gradient-83);}.cls-110{fill:url(#linear-gradient-84);}.cls-111{fill:url(#linear-gradient-85);}.cls-112{fill:url(#linear-gradient-86);}.cls-113{fill:url(#linear-gradient-87);}</style><clipPath id="clip-path"><rect class="cls-1" x="-45.02" y="-20.21" width="952.22" height="634.81"/></clipPath><radialGradient id="radial-gradient" cx="379.93" cy="391.87" r="350.98" gradientTransform="matrix(1, 0.05, 0, 0.61, 0, 127.47)" gradientUnits="userSpaceOnUse"><stop offset="0" stop-color="#00bfd8"/><stop offset="0.15" stop-color="#00bfd8" stop-opacity="0.98"/><stop offset="0.29" stop-color="#00bfd8" stop-opacity="0.93"/><stop offset="0.42" stop-color="#00bfd8" stop-opacity="0.85"/><stop offset="0.55" stop-color="#00bfd8" stop-opacity="0.73"/><stop offset="0.68" stop-color="#00bfd8" stop-opacity="0.57"/><stop offset="0.8" stop-color="#00bfd8" stop-opacity="0.38"/><stop offset="0.92" stop-color="#00bfd8" stop-opacity="0.16"/><stop offset="1" stop-color="#00bfd8" stop-opacity="0"/></radialGradient><linearGradient id="linear-gradient" x1="252.51" y1="272.33" x2="636.66" y2="272.33" gradientUnits="userSpaceOnUse"><stop offset="0" stop-color="#70ffff"/><stop offset="0.7" stop-color="#22fffb"/><stop offset="1" stop-color="#00fff9"/></linearGradient><linearGradient id="linear-gradient-2" x1="272.63" y1="34.02" x2="617.12" y2="530.87" gradientUnits="userSpaceOnUse"><stop offset="0" stop-color="#00a7ff"/><stop offset="0.58" stop-color="#005afc"/><stop offset="1" stop-color="#001ef9"/></linearGradient><linearGradient id="linear-gradient-3" x1="249.52" y1="144.49" x2="629.36" y2="144.49" gradientUnits="userSpaceOnUse"><stop offset="0" stop-color="#004cff"/><stop offset="0.78" stop-color="#0029b1"/><stop offset="1" stop-color="#001e9a"/></linearGradient><linearGradient id="linear-gradient-4" x1="631.03" y1="270.96" x2="573.18" y2="226.16" gradientUnits="userSpaceOnUse"><stop offset="0" stop-color="#06c9fd"/><stop offset="0.67" stop-color="#b0eefe"/><stop offset="1" stop-color="#fff"/></linearGradient><linearGradient id="linear-gradient-5" x1="632.25" y1="269.38" x2="574.4" y2="224.59" xlink:href="#linear-gradient-4"/><linearGradient id="linear-gradient-6" x1="633.47" y1="267.81" x2="575.62" y2="223.01" xlink:href="#linear-gradient-4"/><linearGradient id="linear-gradient-7" x1="436.29" y1="307.22" x2="367.47" y2="208.4" gradientUnits="userSpaceOnUse"><stop offset="0" stop-color="#00a7e5"/><stop offset="1" stop-color="#06c9fd"/></linearGradient><linearGradient id="linear-gradient-8" x1="263.98" y1="142.99" x2="340.6" y2="214.67" gradientTransform="matrix(1, 0.05, 0, 1, 0, -30.1)" gradientUnits="userSpaceOnUse"><stop offset="0" stop-color="#06c9fd"/><stop offset="0.25" stop-color="#04aef1"/><stop offset="1" stop-color="#0060d0"/></linearGradient><linearGradient id="linear-gradient-9" x1="267.09" y1="139.67" x2="343.7" y2="211.35" xlink:href="#linear-gradient-8"/><linearGradient id="linear-gradient-10" x1="287.24" y1="118.13" x2="363.86" y2="189.8" xlink:href="#linear-gradient-8"/><linearGradient id="linear-gradient-11" x1="180.23" y1="228.66" x2="180.23" y2="164.66" xlink:href="#linear-gradient-4"/><linearGradient id="linear-gradient-12" x1="202.67" y1="184.48" x2="185.02" y2="170.82" xlink:href="#linear-gradient-4"/><linearGradient id="linear-gradient-13" x1="203.04" y1="184" x2="185.39" y2="170.34" xlink:href="#linear-gradient-4"/><linearGradient id="linear-gradient-14" x1="203.41" y1="183.52" x2="185.76" y2="169.86" xlink:href="#linear-gradient-4"/><linearGradient id="linear-gradient-15" x1="263.95" y1="273.44" x2="277.84" y2="278.29" gradientUnits="userSpaceOnUse"><stop offset="0" stop-color="#170960"/><stop offset="1" stop-color="#24188b"/></linearGradient><linearGradient id="linear-gradient-16" x1="279.65" y1="251.35" x2="302.66" y2="254.81" xlink:href="#linear-gradient-15"/><linearGradient id="linear-gradient-17" x1="211.05" y1="302.57" x2="234.06" y2="306.02" gradientTransform="matrix(0.99, 0.1, -0.1, 0.99, 91.92, -35.14)" xlink:href="#linear-gradient-15"/><linearGradient id="linear-gradient-18" x1="291.63" y1="215.09" x2="299.72" y2="215.09" gradientUnits="userSpaceOnUse"><stop offset="0" stop-color="#00a7e5"/><stop offset="0.36" stop-color="#02b3ed" stop-opacity="0.66"/><stop offset="1" stop-color="#06c9fd" stop-opacity="0"/></linearGradient><linearGradient id="linear-gradient-19" x1="280.99" y1="183.33" x2="291.75" y2="183.33" xlink:href="#linear-gradient-18"/><linearGradient id="linear-gradient-20" x1="646.97" y1="316.44" x2="671.47" y2="347.06" gradientUnits="userSpaceOnUse"><stop offset="0" stop-color="#00fff9"/><stop offset="0.41" stop-color="#39fffc"/><stop offset="1" stop-color="#86ffff"/></linearGradient><linearGradient id="linear-gradient-21" x1="675.26" y1="-128.13" x2="704.13" y2="-128.13" gradientTransform="matrix(1, 1.25, 0, 1, 0, -392.39)" xlink:href="#linear-gradient-20"/><linearGradient id="linear-gradient-22" x1="675.26" y1="-121.86" x2="704.13" y2="-121.86" gradientTransform="matrix(1, 1.25, 0, 1, 0, -392.39)" xlink:href="#linear-gradient-20"/><linearGradient id="linear-gradient-23" x1="675.26" y1="-115.59" x2="704.13" y2="-115.59" gradientTransform="matrix(1, 1.25, 0, 1, 0, -392.39)" xlink:href="#linear-gradient-20"/><linearGradient id="linear-gradient-24" x1="675.26" y1="-104.73" x2="689.41" y2="-104.73" gradientTransform="matrix(1, 1.25, 0, 1, 0, -392.39)" xlink:href="#linear-gradient-20"/><linearGradient id="linear-gradient-25" x1="663.92" y1="324.28" x2="653.88" y2="306.8" gradientTransform="matrix(1, 0.62, 0, 1, 0, -357.17)" xlink:href="#linear-gradient-20"/><linearGradient id="linear-gradient-26" x1="646.97" y1="355.56" x2="671.47" y2="386.18" xlink:href="#linear-gradient-20"/><linearGradient id="linear-gradient-27" x1="675.26" y1="-89.01" x2="704.13" y2="-89.01" gradientTransform="matrix(1, 1.25, 0, 1, 0, -392.39)" xlink:href="#linear-gradient-20"/><linearGradient id="linear-gradient-28" x1="675.26" y1="-82.74" x2="704.13" y2="-82.74" gradientTransform="matrix(1, 1.25, 0, 1, 0, -392.39)" xlink:href="#linear-gradient-20"/><linearGradient id="linear-gradient-29" x1="675.26" y1="-76.48" x2="704.13" y2="-76.48" gradientTransform="matrix(1, 1.25, 0, 1, 0, -392.39)" xlink:href="#linear-gradient-20"/><linearGradient id="linear-gradient-30" x1="675.26" y1="-65.61" x2="689.41" y2="-65.61" gradientTransform="matrix(1, 1.25, 0, 1, 0, -392.39)" xlink:href="#linear-gradient-20"/><linearGradient id="linear-gradient-31" x1="646.97" y1="394.68" x2="671.47" y2="425.3" xlink:href="#linear-gradient-20"/><linearGradient id="linear-gradient-32" x1="675.26" y1="-49.89" x2="704.13" y2="-49.89" gradientTransform="matrix(1, 1.25, 0, 1, 0, -392.39)" xlink:href="#linear-gradient-20"/><linearGradient id="linear-gradient-33" x1="675.26" y1="-43.63" x2="704.13" y2="-43.63" gradientTransform="matrix(1, 1.25, 0, 1, 0, -392.39)" xlink:href="#linear-gradient-20"/><linearGradient id="linear-gradient-34" x1="675.26" y1="-37.36" x2="704.13" y2="-37.36" gradientTransform="matrix(1, 1.25, 0, 1, 0, -392.39)" xlink:href="#linear-gradient-20"/><linearGradient id="linear-gradient-35" x1="675.26" y1="-26.49" x2="689.41" y2="-26.49" gradientTransform="matrix(1, 1.25, 0, 1, 0, -392.39)" xlink:href="#linear-gradient-20"/><linearGradient id="linear-gradient-36" x1="457.77" y1="306.51" x2="598.99" y2="306.51" gradientUnits="userSpaceOnUse"><stop offset="0" stop-color="#fff"/><stop offset="1" stop-color="#fff"/></linearGradient><linearGradient id="linear-gradient-37" x1="554.81" y1="322.67" x2="501.49" y2="256.65" gradientUnits="userSpaceOnUse"><stop offset="0" stop-color="#069afd"/><stop offset="0.22" stop-color="#05b1fd"/><stop offset="1" stop-color="aqua"/></linearGradient><linearGradient id="linear-gradient-38" x1="476.01" y1="395.17" x2="580.75" y2="395.17" gradientTransform="matrix(1, 0.63, 0, 1, 0, -387.86)" xlink:href="#linear-gradient-36"/><linearGradient id="linear-gradient-39" x1="476.01" y1="404.97" x2="580.75" y2="404.97" gradientTransform="matrix(1, 0.63, 0, 1, 0, -387.86)" xlink:href="#linear-gradient-36"/><linearGradient id="linear-gradient-40" x1="476.01" y1="414.83" x2="535.06" y2="414.83" gradientTransform="matrix(1, 0.63, 0, 1, 0, -387.86)" xlink:href="#linear-gradient-36"/><linearGradient id="linear-gradient-41" x1="360.57" y1="375.19" x2="533.22" y2="375.19" xlink:href="#linear-gradient-36"/><linearGradient id="linear-gradient-42" x1="411.28" y1="198.72" x2="473.41" y2="198.72" gradientTransform="matrix(1, 0.06, 0, 1, 0, -30.36)" xlink:href="#linear-gradient-8"/><linearGradient id="linear-gradient-43" x1="418.75" y1="170.21" x2="428.75" y2="183.86" gradientTransform="matrix(1, 0.06, 0, 1, 0, -28.98)" gradientUnits="userSpaceOnUse"><stop offset="0" stop-color="#06d8fd"/><stop offset="0.34" stop-color="#04aeed"/><stop offset="1" stop-color="#0060d0"/></linearGradient><linearGradient id="linear-gradient-44" x1="416.66" y1="171.74" x2="426.66" y2="185.39" xlink:href="#linear-gradient-43"/><linearGradient id="linear-gradient-45" x1="441.96" y1="177.85" x2="472.78" y2="224.24" xlink:href="#linear-gradient-43"/><linearGradient id="linear-gradient-46" x1="439.4" y1="179.55" x2="470.22" y2="225.94" xlink:href="#linear-gradient-43"/><linearGradient id="linear-gradient-47" x1="436.85" y1="181.25" x2="467.67" y2="227.64" xlink:href="#linear-gradient-43"/><linearGradient id="linear-gradient-48" x1="434.29" y1="182.94" x2="465.11" y2="229.33" xlink:href="#linear-gradient-43"/><linearGradient id="linear-gradient-49" x1="431.73" y1="184.64" x2="462.55" y2="231.03" xlink:href="#linear-gradient-43"/><linearGradient id="linear-gradient-50" x1="429.17" y1="186.34" x2="459.99" y2="232.73" xlink:href="#linear-gradient-43"/><linearGradient id="linear-gradient-51" x1="415.49" y1="117.8" x2="448.59" y2="117.8" xlink:href="#linear-gradient-18"/><linearGradient id="linear-gradient-52" x1="543.82" y1="452.2" x2="591.08" y2="452.2" gradientUnits="userSpaceOnUse"><stop offset="0" stop-color="#069afd"/><stop offset="1" stop-color="#0061ff"/></linearGradient><linearGradient id="linear-gradient-53" x1="324.72" y1="443.62" x2="372.81" y2="443.62" xlink:href="#linear-gradient-15"/><linearGradient id="linear-gradient-54" x1="364.73" y1="357.16" x2="401.79" y2="357.16" xlink:href="#linear-gradient-15"/><linearGradient id="linear-gradient-55" x1="338.58" y1="352.42" x2="364.73" y2="352.42" gradientUnits="userSpaceOnUse"><stop offset="0" stop-color="#ffd30e"/><stop offset="0.39" stop-color="#ffad08"/><stop offset="0.78" stop-color="#ff8d02"/><stop offset="1" stop-color="#ff8100"/></linearGradient><linearGradient id="linear-gradient-56" x1="377.19" y1="333.63" x2="377.05" y2="361.14" gradientUnits="userSpaceOnUse"><stop offset="0" stop-color="#00fff9"/><stop offset="0.5" stop-color="#00aee3"/><stop offset="1" stop-color="#0060ce"/></linearGradient><linearGradient id="linear-gradient-57" x1="354.79" y1="322.48" x2="365.96" y2="352.08" xlink:href="#linear-gradient-56"/><linearGradient id="linear-gradient-58" x1="375.51" y1="356.31" x2="385.36" y2="374.43" xlink:href="#linear-gradient-56"/><linearGradient id="linear-gradient-59" x1="375.62" y1="375.56" x2="401.78" y2="375.56" xlink:href="#linear-gradient-52"/><linearGradient id="linear-gradient-60" x1="338.57" y1="370.82" x2="375.62" y2="370.82" xlink:href="#linear-gradient-52"/><linearGradient id="linear-gradient-61" x1="345.76" y1="331.7" x2="357.76" y2="331.7" xlink:href="#linear-gradient-18"/><linearGradient id="linear-gradient-62" x1="359.67" y1="369.04" x2="370.57" y2="369.04" xlink:href="#linear-gradient-18"/><linearGradient id="linear-gradient-63" x1="158.9" y1="84.86" x2="185.1" y2="84.86" gradientUnits="userSpaceOnUse"><stop offset="0" stop-color="#3660cd"/><stop offset="1" stop-color="#1627f9"/></linearGradient><linearGradient id="linear-gradient-64" x1="158.41" y1="192.11" x2="202.05" y2="192.11" xlink:href="#linear-gradient-20"/><linearGradient id="linear-gradient-65" x1="413.21" y1="488.4" x2="422.87" y2="488.4" xlink:href="#linear-gradient-18"/><linearGradient id="linear-gradient-66" x1="421.26" y1="422.51" x2="474.65" y2="422.51" xlink:href="#linear-gradient-52"/><linearGradient id="linear-gradient-67" x1="423.88" y1="422.51" x2="472.04" y2="422.51" xlink:href="#linear-gradient-37"/><linearGradient id="linear-gradient-68" x1="425.34" y1="438.96" x2="435.16" y2="438.96" xlink:href="#linear-gradient-18"/><linearGradient id="linear-gradient-69" x1="424.1" y1="576.19" x2="431.14" y2="576.19" xlink:href="#linear-gradient-15"/><linearGradient id="linear-gradient-70" x1="410.28" y1="570.54" x2="417.32" y2="570.54" xlink:href="#linear-gradient-15"/><linearGradient id="linear-gradient-71" x1="489.12" y1="128.93" x2="515.99" y2="167.4" gradientTransform="matrix(1, 0.05, 0, 1, 0, -31.96)" gradientUnits="userSpaceOnUse"><stop offset="0" stop-color="aqua"/><stop offset="1" stop-color="aqua"/></linearGradient><linearGradient id="linear-gradient-72" x1="523.22" y1="179.18" x2="600.59" y2="179.18" gradientTransform="matrix(1, 0.05, 0, 1, 0, -33.35)" gradientUnits="userSpaceOnUse"><stop offset="0" stop-color="#00eaff"/><stop offset="0.54" stop-color="#0089e6"/><stop offset="1" stop-color="#003bd2"/></linearGradient><linearGradient id="linear-gradient-73" x1="351.86" y1="50.75" x2="360.45" y2="63.05" xlink:href="#linear-gradient-71"/><linearGradient id="linear-gradient-74" x1="717.13" y1="267.47" x2="726.75" y2="281.24" xlink:href="#linear-gradient-71"/><linearGradient id="linear-gradient-75" x1="671.42" y1="251.77" x2="678.96" y2="262.54" xlink:href="#linear-gradient-71"/><linearGradient id="linear-gradient-76" x1="484.65" y1="78.75" x2="492.18" y2="89.53" xlink:href="#linear-gradient-71"/><linearGradient id="linear-gradient-77" x1="740.61" y1="363.08" x2="748.14" y2="373.86" xlink:href="#linear-gradient-71"/><linearGradient id="linear-gradient-78" x1="685.58" y1="506.49" x2="693.11" y2="517.27" xlink:href="#linear-gradient-71"/><linearGradient id="linear-gradient-79" x1="136.62" y1="207.04" x2="144.15" y2="217.82" xlink:href="#linear-gradient-71"/><linearGradient id="linear-gradient-80" x1="197.68" y1="78.35" x2="209.09" y2="94.68" xlink:href="#linear-gradient-71"/><linearGradient id="linear-gradient-81" x1="380.29" y1="59.82" x2="391.7" y2="76.14" xlink:href="#linear-gradient-71"/><linearGradient id="linear-gradient-82" x1="590.89" y1="105.77" x2="598.23" y2="116.27" xlink:href="#linear-gradient-71"/><linearGradient id="linear-gradient-83" x1="709.26" y1="218.16" x2="716.6" y2="228.66" xlink:href="#linear-gradient-71"/><linearGradient id="linear-gradient-84" x1="640.35" y1="205.85" x2="645.04" y2="212.56" xlink:href="#linear-gradient-71"/><linearGradient id="linear-gradient-85" x1="542.62" y1="130.23" x2="547.31" y2="136.95" xlink:href="#linear-gradient-71"/><linearGradient id="linear-gradient-86" x1="199.03" y1="305.87" x2="203.72" y2="312.59" xlink:href="#linear-gradient-71"/><linearGradient id="linear-gradient-87" x1="309.36" y1="95.42" x2="274.83" y2="66.17" xlink:href="#linear-gradient-3"/></defs><g class="cls-2"><g id="Layer_1" data-name="Layer 1"><g class="cls-3"><path class="cls-4" d="M892.13,412.73l4.43-2.33a1,1,0,0,0,.37-1.36,1,1,0,0,0-1.37-.44l-5.45,2.86-34.42-21.68,4.55-2.39a1,1,0,0,0,.37-1.36,1.05,1.05,0,0,0-1.38-.44l-5.56,2.92-34.43-21.69,4.67-2.45a1,1,0,0,0,.37-1.36,1,1,0,0,0-1.38-.44l-5.67,3L782.8,343.86l4.78-2.51A1,1,0,0,0,788,340a1,1,0,0,0-1.37-.44l-5.79,3-34.43-21.68,4.9-2.58a1,1,0,0,0,.37-1.35,1,1,0,0,0-1.38-.44l-5.9,3.1L709.92,298l5-2.64a1,1,0,0,0,.37-1.35,1,1,0,0,0-1.37-.44l-6,3.16L673.48,275l5.13-2.69a1,1,0,0,0,.37-1.36,1.05,1.05,0,0,0-1.38-.44l-6.14,3.22L637,252l5.24-2.75a1,1,0,0,0,.37-1.35,1,1,0,0,0-1.38-.45L635,250.77l-34.43-21.69,5.36-2.82a1,1,0,0,0,.37-1.35,1,1,0,0,0-1.37-.45l-6.37,3.35-34.43-21.69,5.48-2.87a1,1,0,0,0,.37-1.36,1.05,1.05,0,0,0-1.38-.44l-6.48,3.4-34.43-21.69,5.59-2.93a1,1,0,0,0,.37-1.36,1.06,1.06,0,0,0-1.38-.44l-6.59,3.46-34.43-21.68,5.7-3a1,1,0,0,0,.37-1.36,1.05,1.05,0,0,0-1.37-.44l-6.71,3.53-34.43-21.69,5.82-3.06a1,1,0,0,0,.36-1.35,1,1,0,0,0-1.37-.44L452.81,136l-34.42-21.69,5.93-3.11a1,1,0,0,0,.37-1.36,1.05,1.05,0,0,0-1.38-.44L416.37,113,382,91.34l6-3.18a1,1,0,0,0,.38-1.35,1.06,1.06,0,0,0-1.38-.45l-7.05,3.71-7.06-4.44a1,1,0,0,0-1.37.29,1,1,0,0,0,.37,1.4l6,3.81L343.5,109.2l-6.94-4.37a1,1,0,0,0-1.38.3,1,1,0,0,0,.37,1.4l5.93,3.73-34.43,18.08-6.82-4.3a1,1,0,0,0-1.38.3,1,1,0,0,0,.37,1.39L305,129.4l-34.43,18.08-6.71-4.23a1,1,0,0,0-1.37.3,1,1,0,0,0,.37,1.39l5.7,3.6-34.43,18.08-6.6-4.16a1,1,0,0,0-1.37.3,1,1,0,0,0,.37,1.4l5.59,3.52-34.43,18.07-6.48-4.08a1,1,0,0,0-1.37.3,1,1,0,0,0,.37,1.39l5.47,3.45-34.43,18.08-6.37-4a1,1,0,0,0-1.37.3,1,1,0,0,0,.37,1.39l5.36,3.38L124.85,224l-6.25-3.94a1,1,0,0,0-1.38.3,1,1,0,0,0,.37,1.39l5.24,3.31L88.41,243.16l-6.14-3.86a1,1,0,0,0-1.37.3,1,1,0,0,0,.36,1.39l5.13,3.23L52,262.3l-6-3.79a1,1,0,0,0-1.37.3,1,1,0,0,0,.37,1.39l5,3.16L15.52,281.44l-5.9-3.72a1,1,0,0,0-1.38.3,1,1,0,0,0,.37,1.39l4.9,3.09-34.43,18.08-5.79-3.65a1,1,0,0,0-1.38.3,1,1,0,0,0,.37,1.39l4.79,3-34.43,18.08L-63,316.14a1,1,0,0,0-1.37.29,1,1,0,0,0,.37,1.4l4.67,2.94L-93.8,338.85l-5.56-3.5a1,1,0,0,0-1.38.3,1,1,0,0,0,.37,1.39l4.55,2.87L-130.24,358l-5.45-3.43a1,1,0,0,0-1.37.3,1,1,0,0,0,.36,1.39l4.44,2.8-4.44,2.33a1,1,0,0,0-.36,1.35,1,1,0,0,0,.87.55,1,1,0,0,0,.5-.1l5.45-2.86L-95.82,382l-4.55,2.39a1,1,0,0,0-.37,1.36,1.1,1.1,0,0,0,.87.55,1,1,0,0,0,.51-.11l5.56-2.92L-59.38,405-64,407.41a1,1,0,0,0-.37,1.36,1.06,1.06,0,0,0,.87.54,1,1,0,0,0,.51-.1l5.67-3,34.43,21.69-4.79,2.51a1,1,0,0,0-.37,1.35,1.05,1.05,0,0,0,.88.55,1,1,0,0,0,.5-.1l5.79-3,34.43,21.68-4.9,2.57a1,1,0,0,0-.37,1.36,1.1,1.1,0,0,0,.87.55,1,1,0,0,0,.51-.11l5.9-3.1L50,473.83l-5,2.63a1,1,0,0,0-.37,1.36,1,1,0,0,0,1.37.44l6-3.16,34.43,21.69-5.13,2.69a1,1,0,0,0-.36,1.36,1.07,1.07,0,0,0,.87.55,1.1,1.1,0,0,0,.5-.11l6.14-3.22,34.42,21.68-5.24,2.76a1,1,0,0,0-.37,1.35,1.1,1.1,0,0,0,.88.55.89.89,0,0,0,.5-.11l6.25-3.28,34.42,21.69-5.35,2.81a1,1,0,0,0-.37,1.36,1.1,1.1,0,0,0,.87.55,1,1,0,0,0,.5-.11l6.37-3.34,34.42,21.69-5.46,2.87a1,1,0,0,0-.37,1.35,1,1,0,0,0,.87.55,1,1,0,0,0,.5-.1l6.48-3.4,34.43,21.69-5.59,2.93a1,1,0,0,0-.37,1.35,1.05,1.05,0,0,0,.88.55,1,1,0,0,0,.5-.1l6.59-3.47,34.42,21.69-5.69,3a1,1,0,0,0-.37,1.36,1.07,1.07,0,0,0,.87.55,1,1,0,0,0,.5-.11l6.71-3.52L305,634.53l-5.82,3.05a1,1,0,0,0-.37,1.36,1,1,0,0,0,1.38.44l6.82-3.58,34.43,21.68-5.93,3.12a1,1,0,0,0-.37,1.36,1.06,1.06,0,0,0,.87.54,1,1,0,0,0,.51-.1l6.93-3.65,34.43,21.69-6,3.17a1,1,0,0,0-.37,1.36,1.08,1.08,0,0,0,.87.55.88.88,0,0,0,.5-.11l7.05-3.7,7.05,4.44a1.09,1.09,0,0,0,.51.16,1,1,0,0,0,.87-.45,1,1,0,0,0-.37-1.4l-6-3.81,34.42-18.08,6.94,4.37a1,1,0,0,0,1.38-.29,1.06,1.06,0,0,0-.37-1.4l-5.93-3.73,34.43-18.09,6.82,4.3a1.05,1.05,0,0,0,.5.16.92.92,0,0,0,.87-.46,1,1,0,0,0-.36-1.39l-5.82-3.66,34.43-18.08,6.71,4.22a1,1,0,0,0,.5.16,1,1,0,0,0,.87-.45,1,1,0,0,0-.37-1.4l-5.7-3.59,34.43-18.08,6.59,4.16a1.17,1.17,0,0,0,.51.16,1,1,0,0,0,.87-.46,1.06,1.06,0,0,0-.37-1.4l-5.59-3.52L562.14,586l6.48,4.08a1.05,1.05,0,0,0,.5.16,1,1,0,0,0,.88-.45,1.05,1.05,0,0,0-.37-1.4L564.16,585l34.42-18.08,6.37,4a.93.93,0,0,0,.5.16.94.94,0,0,0,.87-.45,1,1,0,0,0-.37-1.4l-5.35-3.37L635,547.75l6.25,3.94a1.05,1.05,0,0,0,.51.16,1,1,0,0,0,.87-.46,1.06,1.06,0,0,0-.37-1.4l-5.24-3.3,34.42-18.08,6.14,3.87a1.05,1.05,0,0,0,.5.16,1,1,0,0,0,.88-.46,1,1,0,0,0-.37-1.39l-5.13-3.24,34.43-18.08,6,3.8a1.17,1.17,0,0,0,.5.16,1,1,0,0,0,.87-.46,1,1,0,0,0-.37-1.4l-5-3.15,34.43-18.08,5.9,3.72a1.05,1.05,0,0,0,.5.16,1,1,0,0,0,.88-.46,1.06,1.06,0,0,0-.37-1.4l-4.9-3.08,34.43-18.08,5.79,3.65a1,1,0,0,0,.5.16,1,1,0,0,0,.87-.46,1,1,0,0,0-.37-1.39l-4.78-3,34.43-18.08,5.67,3.58a1.05,1.05,0,0,0,.51.16,1,1,0,0,0,.87-.46,1,1,0,0,0-.37-1.4L819.25,451l34.42-18.08,5.56,3.5a1.05,1.05,0,0,0,.5.16,1,1,0,0,0,.88-.46,1,1,0,0,0-.37-1.39l-4.55-2.87,34.42-18.08,5.45,3.43a1.05,1.05,0,0,0,.5.16.92.92,0,0,0,.87-.46,1,1,0,0,0-.37-1.39Zm-40.47-23.17-34.43,18.08L782.8,386l34.43-18.08Zm-473.74-3.78L343.5,403.86l-34.43-21.69,34.42-18.08ZM345.51,363,379.94,345l34.42,21.69-34.42,18.08Zm34.43,24,34.42,21.69-34.42,18.08-34.43-21.69Zm2-1.06,34.43-18.08L450.8,389.6l-34.42,18.08Zm36.44-19.13,34.43-18.08,34.43,21.68-34.43,18.08Zm-2-1.27L382,343.9l34.43-18.08,34.43,21.69Zm-36.44-23-34.43-21.69,34.43-18.08,34.42,21.69Zm-2,1.06-34.43,18.08-34.42-21.69L343.49,322Zm-36.44,19.14-34.43,18.08-34.42-21.69,34.42-18.08ZM305,382,270.61,400l-34.43-21.69,34.43-18.08Zm2,1.27,34.43,21.69L307.05,423l-34.42-21.69Zm36.45,23,34.42,21.69L343.5,446l-34.43-21.69Zm36.44,23,34.42,21.68-34.42,18.08-34.43-21.69Zm2-1.06L416.38,410,450.8,431.7l-34.42,18.08ZM418.39,409l34.43-18.08,34.42,21.69-34.42,18.08Zm36.44-19.14,34.43-18.08,34.43,21.69L489.26,411.5Zm36.45-19.13L525.7,352.6l34.43,21.69L525.7,392.36Zm-2-1.27-34.43-21.69,34.43-18.08,34.42,21.69Zm-36.44-23-34.43-21.69,34.43-18.08,34.42,21.69Zm-36.44-23L382,301.8l34.42-18.07,34.43,21.68Zm-36.44-22.95-34.43-21.69,34.42-18.08,34.43,21.69Zm-2,1-34.43,18.08L309.07,298l34.43-18.08Zm-36.44,19.14-34.43,18.08-34.42-21.69L307.05,299ZM305,339.87,270.61,358l-34.43-21.69,34.43-18.08ZM268.6,359l-34.43,18.07L199.74,355.4l34.43-18.08Zm-36.44,19.13-34.43,18.08L163.3,374.54l34.43-18.09Zm2,1.27L268.6,401.1l-34.43,18.08-34.43-21.69Zm36.44,23L305,424.06l-34.43,18.08-34.43-21.69Zm36.44,23L341.48,447l-34.43,18.08-34.42-21.68Zm36.45,22.95L377.92,470l-34.43,18.08-34.42-21.69Zm36.44,23,34.43,21.69L379.94,511l-34.43-21.69Zm2-1.06,34.43-18.08,34.43,21.69-34.43,18.08ZM418.39,451,452.82,433l34.43,21.69-34.43,18.08Zm36.44-19.13,34.43-18.08,34.43,21.69L489.26,453.6Zm36.44-19.14,34.43-18.08,34.43,21.69L525.7,434.46Zm36.45-19.14,34.42-18.08,34.43,21.69-34.42,18.08Zm36.43-19.13,34.43-18.08L633,378.11l-34.43,18.08Zm-2-1.27-34.43-21.69,34.43-18.08,34.43,21.69Zm-36.44-23-34.43-21.69L525.7,310.5l34.43,21.69Zm-36.44-23-34.43-21.68,34.43-18.08,34.43,21.69Zm-36.44-22.95-34.43-21.69,34.43-18.08,34.42,21.69Zm-36.45-23L382,259.71l34.43-18.08,34.42,21.69Zm-36.44-23-34.42-21.69,34.42-18.08,34.43,21.69Zm-2,1.06L343.5,277.58l-34.43-21.69,34.42-18.08Zm-36.44,19.14-34.43,18.08L272.63,275,307.05,257ZM305,297.77l-34.43,18.08-34.43-21.68,34.43-18.08ZM268.6,316.91,234.17,335,199.74,313.3l34.43-18.08Zm-36.44,19.14-34.43,18.08L163.3,332.44l34.43-18.08Zm-36.44,19.14-34.43,18.08-34.43-21.69,34.43-18.08Zm-36.45,19.13L124.85,392.4,90.42,370.72l34.42-18.08Zm2,1.27,34.42,21.69-34.42,18.08-34.43-21.69Zm36.44,23,34.43,21.69-34.43,18.08L163.3,416.63Zm36.44,23L268.6,443.2l-34.43,18.07-34.43-21.68Zm36.44,22.95L305,466.15l-34.43,18.08-34.43-21.69Zm36.44,23,34.43,21.69-34.43,18.08L272.63,485.5Zm36.44,23,34.43,21.69L343.5,530.14l-34.43-21.68Zm36.45,23L414.36,535,379.93,553.1l-34.42-21.69Zm2-1.06,34.43-18.08,34.42,21.68L416.37,534Zm36.44-19.14,34.43-18.08,34.42,21.69-34.42,18.07ZM454.83,474l34.43-18.08,34.42,21.69-34.42,18.08Zm36.45-19.13,34.42-18.08,34.43,21.68L525.7,476.55Zm36.44-19.14,34.43-18.08,34.42,21.68-34.43,18.08Zm36.44-19.14,34.42-18.08L633,420.2l-34.43,18.08Zm36.44-19.14L635,379.38l34.43,21.68L635,419.14ZM637,378.32l34.43-18.08,34.42,21.68L671.46,400Zm-2-1.27L600.6,355.36,635,337.28,669.45,359Zm-36.44-23L564.16,332.4l34.42-18.08L633,336Zm-36.44-23-34.42-21.68,34.42-18.08,34.43,21.68ZM525.7,308.18l-34.43-21.69,34.43-18.08,34.43,21.69Zm-36.44-23-34.43-21.69,34.43-18.08,34.43,21.69Zm-36.44-23-34.43-21.69,34.43-18.07,34.42,21.68Zm-36.44-22.95L382,217.62l34.42-18.08,34.43,21.69Zm-36.45-23-34.42-21.69,34.42-18.08,34.43,21.69Zm-2,1.06-34.43,18.08L309.06,213.8l34.43-18.08Zm-36.44,19.13-34.43,18.08-34.42-21.69,34.42-18.07ZM305,255.68l-34.43,18.08-34.43-21.69L270.61,234ZM268.6,274.82,234.17,292.9l-34.43-21.69,34.43-18.08ZM232.15,294,197.73,312,163.3,290.35l34.43-18.08Zm-36.44,19.14-34.42,18.08-34.43-21.69,34.43-18.08Zm-36.44,19.14-34.43,18.08L90.42,328.62l34.43-18.08Zm-36.44,19.14L88.4,369.45,54,347.76,88.4,329.68ZM86.39,370.5,52,388.58,17.54,366.89,52,348.82Zm2,1.27,34.43,21.69L88.4,411.54,54,389.85Zm36.45,23,34.42,21.69L124.85,434.5,90.42,412.81Zm36.44,23,34.43,21.69-34.43,18.07-34.43-21.68Zm36.44,22.95,34.43,21.69-34.43,18.08L163.3,458.72Zm36.44,23,34.43,21.69-34.43,18.08-34.43-21.69Zm36.44,23L305,508.25l-34.43,18.07-34.43-21.68Zm36.44,22.95,34.43,21.69-34.43,18.08-34.42-21.69Zm36.45,23,34.42,21.69-34.43,18.08-34.42-21.69Zm36.43,23,34.43,21.68-34.43,18.08-34.42-21.68Zm2-1.06,34.42-18.08L450.8,558l-34.43,18.08Zm36.44-19.14,34.43-18.08,34.42,21.69-34.43,18.08Zm36.44-19.14L489.26,498l34.42,21.68-34.42,18.08ZM491.27,497l34.43-18.08,34.43,21.69L525.7,518.64Zm36.44-19.14,34.43-18.08,34.43,21.69-34.43,18.08Zm36.45-19.14,34.42-18.08L633,462.29l-34.43,18.08Zm36.44-19.13L635,421.47l34.43,21.68L635,461.23ZM637,420.41l34.42-18.08L705.89,424,671.46,442.1Zm36.44-19.14,34.43-18.08,34.42,21.69L707.9,423Zm36.44-19.14,34.43-18.07,34.42,21.68-34.42,18.08Zm-2-1.27-34.43-21.68,34.43-18.08,34.42,21.69Zm-36.44-22.95L637,336.22l34.42-18.08,34.43,21.69ZM635,335,600.6,313.26,635,295.19l34.43,21.68ZM598.58,312l-34.42-21.69,34.42-18.08L633,293.92Zm-36.44-23-34.43-21.69,34.43-18.08L596.57,271Zm-36.44-23-34.43-21.69,34.43-18.08L560.13,248Zm-36.44-23-34.43-21.68,34.43-18.08,34.42,21.69Zm-36.44-23-34.43-21.69,34.42-18.08,34.43,21.69Zm-36.45-23L382,175.52l34.42-18.08,34.43,21.69Zm-36.44-23-34.42-21.68,34.42-18.08,34.43,21.68Zm-2,1.06-34.43,18.08L309.07,171.7l34.42-18.08Zm-36.44,19.14-34.43,18.08-34.43-21.69,34.43-18.08ZM305,213.59l-34.43,18.07L236.19,210l34.42-18.08ZM268.6,232.72,234.17,250.8l-34.43-21.69L234.17,211Zm-36.44,19.14-34.43,18.08L163.3,248.25l34.43-18.08ZM195.71,271l-34.42,18.08-34.43-21.69,34.43-18.08Zm-36.44,19.13-34.42,18.08L90.42,286.53l34.43-18.08Zm-36.44,19.14L88.4,327.35,54,305.66l34.43-18.08ZM86.39,328.41,52,346.49,17.54,324.8,52,306.72ZM50,347.55,15.52,365.63-18.9,343.94l34.42-18.08ZM13.51,366.68l-34.43,18.08-34.43-21.68L-20.92,345Zm2,1.27L50,389.64,15.52,407.72-18.91,386Zm36.44,23L86.39,412.6,52,430.68,17.54,409Zm36.44,23,34.43,21.68L88.4,453.63,54,432Zm36.45,22.95,34.42,21.69-34.42,18.08L90.42,454.9Zm36.44,23,34.43,21.69-34.43,18.08-34.43-21.69Zm36.44,23,34.43,21.69-34.43,18.08L163.3,500.82Zm36.44,22.95,34.43,21.69-34.43,18.08-34.43-21.69Zm36.44,23L305,550.34l-34.43,18.08-34.43-21.69Zm36.44,23,34.43,21.68-34.43,18.09-34.42-21.69Zm36.44,22.95,34.43,21.69-34.43,18.08-34.43-21.69Zm36.44,23,34.43,21.69-34.43,18.08L345.5,615.6Zm2-1.06,34.42-18.08,34.43,21.69-34.42,18.08Zm36.44-19.13,34.42-18.08,34.43,21.69L452.82,599Zm36.44-19.14,34.43-18.08,34.43,21.69-34.43,18.08Zm36.44-19.14L525.7,521l34.43,21.69L525.7,560.74Zm36.44-19.14,34.43-18.08,34.43,21.69L562.14,541.6Zm36.44-19.13,34.43-18.08L633,504.39l-34.43,18.08Zm36.45-19.14L635,463.56l34.43,21.69L635,503.33ZM637,462.5l34.42-18.08,34.43,21.69-34.42,18.08Zm36.44-19.13,34.42-18.08L742.33,447l-34.42,18.08Zm36.44-19.14,34.43-18.08,34.43,21.69-34.43,18.08Zm36.44-19.14L780.79,387l34.43,21.69-34.43,18.08Zm68.85-38.48-34.42,18.07L746.36,363l34.43-18.08Zm-36.44-23-34.42,18.08L709.92,340,744.35,322Zm-36.44-23-34.42,18.08-34.43-21.69L707.91,299Zm-36.44-22.95-34.43,18.07L637,294.13l34.42-18.08Zm-36.44-23L635,292.86,600.6,271.17,635,253.09Zm-36.44-23L598.58,269.9l-34.43-21.69,34.43-18.08Zm-36.44-22.95-34.43,18.07-34.43-21.68,34.43-18.08Zm-36.44-23L525.7,224,491.27,202.3l34.43-18.08Zm-36.45-23L489.26,201l-34.43-21.69,34.43-18.08Zm-36.44-23-34.43,18.08-34.42-21.68,34.42-18.08ZM450.8,137l-34.43,18.08L382,133.43l34.42-18.08ZM379.94,92.4l34.42,21.68-34.43,18.08-34.42-21.69ZM343.5,111.53l34.42,21.69L343.49,151.3l-34.42-21.69Zm-36.45,19.14,34.43,21.69-34.43,18.07-34.42-21.68Zm-36.44,19.14L305,171.49l-34.43,18.08-34.43-21.68Zm-36.44,19.13,34.42,21.69-34.42,18.08L199.75,187Zm-36.44,19.14,34.43,21.69-34.43,18.08-34.42-21.69Zm-36.44,19.14,34.43,21.68L161.29,247,126.86,225.3Zm-36.44,19.13L159.27,248l-34.42,18.08L90.42,244.43ZM88.41,245.49l34.42,21.69L88.41,285.26,54,263.57ZM52,264.63l34.42,21.69L52,304.4,17.54,282.71ZM15.52,283.77,50,305.45,15.52,323.53-18.9,301.85ZM-20.92,302.9l34.43,21.69-34.43,18.08L-55.34,321ZM-57.36,322l34.43,21.69-34.43,18.08-34.43-21.69Zm-70.87,37.22,34.43-18.08,34.42,21.69L-93.8,380.94Zm36.44,22.95,34.43-18.08,34.42,21.69L-57.36,403.9Zm36.44,23,34.43-18.08,34.43,21.69-34.43,18.08Zm36.45,23,34.42-18.08L50,431.74,15.52,449.81Zm36.44,22.95L52,433l34.43,21.68L52,472.77ZM54,474,88.4,456l34.43,21.69L88.41,495.73Zm36.44,23,34.43-18.08,34.42,21.69-34.42,18.08Zm36.44,23,34.43-18.08,34.42,21.68-34.42,18.08Zm36.44,22.95,34.43-18.08,34.42,21.69L197.73,564.6Zm36.44,23,34.43-18.08,34.43,21.69-34.43,18.08Zm36.44,23,34.43-18.08L305,592.43l-34.43,18.08Zm36.44,22.95,34.43-18.08,34.43,21.69-34.43,18.08Zm36.44,23,34.43-18.08,34.43,21.69-34.43,18.08Zm70.87,44.64L345.51,657.7l34.42-18.08,34.43,21.68Zm36.44-19.13L382,638.56l34.43-18.08,34.42,21.69Zm36.45-19.14-34.43-21.69,34.43-18.08L487.24,623ZM489.26,622l-34.43-21.69,34.43-18.07,34.42,21.68Zm36.44-19.14-34.43-21.68,34.43-18.08,34.43,21.68Zm36.44-19.13L527.72,562l34.42-18.08,34.43,21.69Zm36.44-19.14-34.42-21.69,34.42-18.08L633,546.48ZM635,545.42,600.6,523.74,635,505.66l34.43,21.68Zm36.44-19.13L637,504.6l34.43-18.08,34.42,21.68Zm36.45-19.14-34.43-21.69,34.43-18.08,34.42,21.69ZM744.35,488l-34.43-21.69,34.43-18.07,34.42,21.68Zm36.44-19.14-34.43-21.68,34.43-18.08,34.43,21.68Zm36.44-19.13-34.42-21.69L817.23,410l34.43,21.69Zm36.44-19.14-34.42-21.69,34.42-18.08,34.43,21.69Z"/></g><path class="cls-5" d="M621.52,237.45,266.89,13.53a6.51,6.51,0,0,0-6.56-.31h0l-.09,0,0,0-7.69,4,4.31,3.55v256A32.5,32.5,0,0,0,272,304.23L624.86,527l1.08,5.15,6.64-3.47a6.66,6.66,0,0,0,1.09-.57l.08,0h0a6.39,6.39,0,0,0,2.92-5.41V264.83A32.42,32.42,0,0,0,621.52,237.45Z"/><path class="cls-6" d="M629.36,268.61V526.46a6.5,6.5,0,0,1-10,5.45L264.68,308a32.49,32.49,0,0,1-15.16-27.39V22.76a6.52,6.52,0,0,1,10.06-5.46L614.22,241.23A32.44,32.44,0,0,1,629.36,268.61Z"/><path class="cls-7" d="M629.36,268.61v4.11L249.52,32.86V22.76a6.52,6.52,0,0,1,10.06-5.46L614.22,241.23A32.44,32.44,0,0,1,629.36,268.61Z"/><path class="cls-8" d="M576.78,228.27c0,2.76-2.24,3.57-5,1.81s-5-5.43-5-8.18,2.24-3.57,5-1.81S576.78,225.51,576.78,228.27Z"/><path class="cls-9" d="M595.28,240.07c0,2.76-2.23,3.57-5,1.81s-5-5.42-5-8.18,2.24-3.57,5-1.81S595.28,237.31,595.28,240.07Z"/><path class="cls-10" d="M613.78,251.88c0,2.76-2.23,3.57-5,1.81s-5-5.43-5-8.19,2.24-3.57,5-1.81S613.78,249.12,613.78,251.88Z"/><path class="cls-11" d="M443.8,252.62v67.74a1.37,1.37,0,0,1-2.11,1.15l-74.63-47.12a6.86,6.86,0,0,1-3.19-5.77V200.88a1.37,1.37,0,0,1,2.11-1.15l74.64,47.13A6.82,6.82,0,0,1,443.8,252.62Z"/><path class="cls-12" d="M443.8,207.69v23a1.37,1.37,0,0,1-2.11,1.15l-74.63-47.12a6.83,6.83,0,0,1-3.19-5.76V156A1.37,1.37,0,0,1,366,154.8l74.64,47.13A6.81,6.81,0,0,1,443.8,207.69Z"/><path class="cls-13" d="M418.21,267.27l-10-6.35v-10a3.94,3.94,0,0,0-1.76-2.88l-5.19-3.29c-1-.62-1.76-.33-1.76.65v10l-10-6.35c-1-.62-1.77-.33-1.77.65v5.18a3.92,3.92,0,0,0,1.77,2.89l10,6.35v10a3.94,3.94,0,0,0,1.76,2.88l5.19,3.29c1,.61,1.76.32,1.76-.65v-10l10,6.35c1,.62,1.77.33,1.77-.65v-5.19A3.92,3.92,0,0,0,418.21,267.27Z"/><path class="cls-12" d="M350.77,139.14l-68.33-43c-1.52-.95-2.85-1.07-3.73-.53v0l-4,2.07,4.72,3.77v56.88c0,2.64,2.15,6.14,4.79,7.81l65.52,41.26.42,5.5,4.14-2.14h0a2.45,2.45,0,0,0,1.27-2.43V147C355.56,144.3,353.42,140.8,350.77,139.14Z"/><path class="cls-14" d="M351.46,149.07v61.31c0,2.64-2.15,3.44-4.79,1.77l-68.34-43c-2.64-1.67-4.79-5.17-4.79-7.81V100c0-2.64,2.15-3.43,4.79-1.77l68.34,43C349.31,142.93,351.46,146.43,351.46,149.07Z"/><path class="cls-15" d="M319,194.74l-40.69-25.62c-2.64-1.67-4.79-5.17-4.79-7.81V129L282,119.6c1.57-1.73,5.5.74,7.07,4.45l23.6,55.75Z"/><path class="cls-16" d="M351.46,206.07v4.31c0,2.64-2.15,3.44-4.79,1.77l-40.29-25.37,6.32-7L328,162.93c1.57-1.73,5.5.74,7.07,4.45Z"/><path class="cls-17" d="M341.24,152.78c0,5.61-4.55,7.29-10.15,3.76S320.94,145.6,320.94,140s4.54-7.29,10.15-3.76S341.24,147.18,341.24,152.78Z"/><path class="cls-18" d="M201.41,203.11v25.07a3.68,3.68,0,0,1-5.63,3.11l-32-20.19a10.07,10.07,0,0,1-4.71-8.55V185.17s1.66-7.51,6-5.67c4.81,2,4.29,17.42,7.14,19.17s5.08-22.77,12.06-19.08c8.33,4.41,2,33.71,7.47,35.5C197.1,216.81,195.88,203.53,201.41,203.11Z"/><path class="cls-19" d="M186.12,171.46c0,.84-.68,1.09-1.53.55a3.39,3.39,0,0,1-1.52-2.49c0-.85.68-1.09,1.52-.56A3.41,3.41,0,0,1,186.12,171.46Z"/><path class="cls-20" d="M191.76,175.06c0,.84-.68,1.09-1.52.55a3.4,3.4,0,0,1-1.53-2.49c0-.84.69-1.09,1.53-.55A3.39,3.39,0,0,1,191.76,175.06Z"/><path class="cls-21" d="M197.41,178.66c0,.84-.68,1.09-1.53.55a3.39,3.39,0,0,1-1.52-2.49c0-.84.68-1.09,1.52-.55A3.37,3.37,0,0,1,197.41,178.66Z"/><path class="cls-22" d="M234.84,385.36a2.69,2.69,0,0,0,2.6-2l49.69-201a2.68,2.68,0,1,0-5.2-1.29L232.24,382a2.67,2.67,0,0,0,1.95,3.24A2.46,2.46,0,0,0,234.84,385.36Z"/><path class="cls-23" d="M319.57,243.4a2,2,0,0,0,1-3.74l-42.31-25.08a2,2,0,0,0-2,3.45l42.31,25.09A2,2,0,0,0,319.57,243.4Z"/><path class="cls-23" d="M312.78,270.78a2,2,0,0,0,1-3.73L271.5,242a2,2,0,0,0-2.05,3.45l42.3,25.08A2,2,0,0,0,312.78,270.78Z"/><path class="cls-23" d="M306,298.16a2,2,0,0,0,1-3.73l-42.29-25.08a2,2,0,0,0-2.05,3.46L305,297.88A2,2,0,0,0,306,298.16Z"/><path class="cls-23" d="M299.2,325.54a2,2,0,0,0,1-3.74l-42.29-25.06a2,2,0,1,0-2,3.45l42.29,25.07A2,2,0,0,0,299.2,325.54Z"/><path class="cls-23" d="M292.41,352.92a2,2,0,0,0,1-3.73l-42.28-25.06a2,2,0,1,0-2,3.45l42.28,25.06A2,2,0,0,0,292.41,352.92Z"/><path class="cls-23" d="M285.62,380.3a2,2,0,0,0,1-3.73l-42.28-25.06a2,2,0,0,0-2.05,3.46l42.28,25A2,2,0,0,0,285.62,380.3Z"/><path class="cls-24" d="M272.22,299.16a3,3,0,0,0-3.08,1.34s-4.32-2.28-7.45-1.19c-2,.69-3.3,2.94-3.59,4.86-.21,1.34-.3,2.14-.35,2.54a.64.64,0,0,0,.08.39,3.68,3.68,0,0,0,2.07,1.65,8,8,0,0,0,4.32.33,9.58,9.58,0,0,0,2.34-.85,1.75,1.75,0,0,1,.84-.84,10.56,10.56,0,0,1,2.76-.34c5.27-.31,6.43-2.53,6.93-3.3C278.5,301.62,277.85,297,272.22,299.16Z"/><path class="cls-14" d="M269.93,298a52.57,52.57,0,0,1,5.5.12c4.57.95,2,8.19-5.39,8.22-3.7,0-3.9,1.46-7,1.56a6.86,6.86,0,0,1-3.84-.89c-1.72-1.26-1.29-2.71-1.11-3.72.4-2.24,1.3-4.19,3.53-4.78A32.46,32.46,0,0,1,269.93,298Z"/><path class="cls-25" d="M263.17,291s-1.57,5.21-2.05,6.3c-.29.66-.84,2-1.12,2.54-.36.68.43,2.28,3.69,2.5,3.42.24,4.58-1.45,4.59-1.59.08-2.11,1.77-5.94,2.58-7.63"/><path class="cls-26" d="M282.06,268c-1.95,4-12.32,29.43-12.32,29.43-.25.35-1.07,2.19-4.76,2.41-4.26.26-5.06-2.44-5.06-2.44,0-2.69,6.15-34.77,8.26-39.42.58-1.27,2.49-5.47,4.17-8.32l14.17,6.07C285,260.27,282.5,267.12,282.06,268Z"/><path class="cls-27" d="M261.56,229.49s-2.34,3.93-3.65,13.53a20.16,20.16,0,0,0,3,12.4c2.82,4.28,10.09,7.87,10.09,7.87l12.5,7.79s4.69.18,8.93-7-.78-20-.78-20Z"/><path class="cls-28" d="M272.71,249.77a13.39,13.39,0,0,0-.82,9.45,36.81,36.81,0,0,0,2.28,6.06l2.9,1.89.69-3.1Z"/><path class="cls-24" d="M281,337.74a17.7,17.7,0,0,1-4-.53s-4.55-1.86-7.53-.41-3.11,3.93-3.09,5.82c0,.66,0,1.73,0,2a.77.77,0,0,0,.19.42,3.39,3.39,0,0,0,2.14,1.3,8.14,8.14,0,0,0,4.32-.05,9.58,9.58,0,0,0,2.24-1.09s.58-.88.89-1a8.76,8.76,0,0,1,2.52-.48c6.15-.43,7.53-2.48,8.05-3.54C287.64,338.21,286.35,335,281,337.74Z"/><path class="cls-14" d="M276.86,335.11l7,.38c2.6.16,3.63,2.35,2.69,4.05-.64,1.15-1.93,3-8.09,3.42-2.74.28-3.91,1.72-6.78,2.29a6.45,6.45,0,0,1-3.92-.49,3.36,3.36,0,0,1-1.49-3.58c.16-2.27.86-4.3,3-5.12A22.37,22.37,0,0,1,276.86,335.11Z"/><path class="cls-25" d="M270.27,331.42s-.81,4.08-1.08,4.55-.74.79-.87,1.26c-.22.75,1.64,2.13,3.61,2.41,3.76.54,5.17-.83,5.43-1.35a57,57,0,0,1,1.65-6"/><path class="cls-29" d="M299.21,257.17c-.08-2-1.39-12.09-1.39-12.09l-21.61-6.49s-4.66,7-4.35,15c.18,4.42,4.52,13.88,4.52,13.88,1.28,6.82,3.21,24.76,3.21,24.89-1.26,2.83-4.95,15.16-5.47,17.18-1.4,5.36-5,24.32-5,24.32s-.49,2.5,3.79,3.14c5.11.77,6.69-2.29,6.69-2.29s14.21-37.05,14.92-40.36a118.82,118.82,0,0,0,3.65-15.7C299.36,271.39,299.61,266.52,299.21,257.17Z"/><path class="cls-25" d="M295.83,175.72a19.65,19.65,0,0,1-4,.95h-.16l-.21,0a7.25,7.25,0,0,0-.72.15,1,1,0,0,0-.59.41c-.45.8-.86,5.9-.86,5.9l-1.52-.78-9.22-4.76s.51-2.59.73-5,1.89-15.25,5.4-17,13.78.71,14.64,2.09c0,0-.1,2.25-.32,6S297.83,174.8,295.83,175.72Z"/><path class="cls-30" d="M283.79,148.68c-3,1.29-3,2.76-3.81,3.4-4.24,1.49-4.15,6.25-3.86,9.22.36,3.71,1.76,6.4,2.1,7.69s-.17,2.52.09,3.28c.36,1,1.92,2,2.85,2.49,1.17.57,3.13.81,3.66.05.87-1.21,1.45-4.83,1.62-6.62.12-1.38.75-2,1.65-1.94s.89,1.37,1,2.54a1.06,1.06,0,0,0,1.52,1c.3-.22.63-2.5.93-3.34s3.06-2.28,3.38-4.85c.25-2.08,1.37-1.73,3.59-2.49,3.91-1.25,3.87-4.65,2.11-7.22a8.73,8.73,0,0,0-5-3.22C291.72,147.9,287,147.31,283.79,148.68Z"/><path class="cls-13" d="M297.78,223.88v0h0v0h0a52,52,0,0,0-.65,13.25,64.79,64.79,0,0,0,1.65,9.66c.31,1.3-3.2,5.06-6.8,6.14-12.27,3.61-28.93-10.25-32.19-15.3-2.75-4.28,1.23-10.82,2.8-14.25,2.79-6,3.3-10.73.21-18.54-3.81-9.64-4.31-22.3,1.84-26.78a9,9,0,0,1,10.47-.71l2.32,1.15,1-1.54a54.46,54.46,0,0,1,13.33,8l-.19,1.35.42.31c4.61,3,8.39,6.14,10.6,9.72l-2.92,16.56-1.11,6.28Z"/><path class="cls-31" d="M299.72,212.94l-1.11,6.28a59.81,59.81,0,0,1-7-8.27Z"/><path class="cls-32" d="M291.75,185.43l-.14.94s-6.83-4.2-10.62-6.07A57,57,0,0,1,291.75,185.43Z"/><path class="cls-33" d="M297.79,223.9h0Z"/><path class="cls-22" d="M278.11,411.3a2.68,2.68,0,0,0,2.6-2l49.69-201a2.67,2.67,0,1,0-5.19-1.29l-49.7,201a2.69,2.69,0,0,0,2,3.25A2.79,2.79,0,0,0,278.11,411.3Z"/><path class="cls-25" d="M356.88,197.32a2.31,2.31,0,0,0-.39.34,1.23,1.23,0,0,0-1.45.58c-.5.74-2.62,2.85-3.38,3s-1.44.32-1.44.32l.47-1a17.19,17.19,0,0,1,1-1.67c.63-.94.39-1.71-.15-1.67s-2,1.21-3.21,2.4c-.75.77-1.6,1.66-2.23,2.4-.29.34-1.14,2.67-2.56,3.37a43.89,43.89,0,0,1-6.25,2.17c-8.36,2.4-15.72,4.28-15.72,4.28L314.44,207l-11.08,9.36s11.16,9.55,16.21,8.44c3.65-.81,22.71-11.72,22.71-11.72s5-2.66,5.53-2.85c1-.31,2.37-.47,3.48-.89a7.94,7.94,0,0,0,3.33-2.72c.42-.61,1.93-3.88,2.59-5.29s.37-1.57,0-1.65c.27-.54.36-.74.54-1.1C358.4,197.11,357.48,197,356.88,197.32Z"/><path class="cls-13" d="M299.58,192.59c4.06,3.3,15.28,14.29,15.28,14.29a8.82,8.82,0,0,1,.33,6.9c-1.82,4.85-6.45,7.28-9,6.67-3.17-.75-8.38-4.63-11.13-6.46-4.15-2.75-11.07-10.68-5.73-19.62C292.26,189.51,297.57,191,299.58,192.59Z"/><path class="cls-34" d="M649.46,316.14a2,2,0,0,1,.28.15l17.69,11a3.5,3.5,0,0,1,1.55,2.41v17.62a1.62,1.62,0,0,1-.29-.15L651,336.17a3.5,3.5,0,0,1-1.54-2.42V316.14m-.2-1.24c-.6,0-1,.41-1,1.17v17.68a4.64,4.64,0,0,0,2.1,3.43l17.69,11.05a2.23,2.23,0,0,0,1.11.38c.6,0,1-.42,1-1.17V329.75a4.66,4.66,0,0,0-2.11-3.42l-17.69-11.05a2.13,2.13,0,0,0-1.11-.38Z"/><path class="cls-35" d="M702.58,351l-25.77-16.11a3.39,3.39,0,0,1-1.55-2.51h0c0-.86.69-1.12,1.55-.58l25.77,16.1a3.4,3.4,0,0,1,1.55,2.52h0C704.13,351.28,703.44,351.54,702.58,351Z"/><path class="cls-36" d="M702.58,357.27l-25.77-16.11a3.39,3.39,0,0,1-1.55-2.52h0c0-.85.69-1.11,1.55-.58l25.77,16.11a3.4,3.4,0,0,1,1.55,2.52h0C704.13,357.54,703.44,357.8,702.58,357.27Z"/><path class="cls-37" d="M702.58,363.54l-25.77-16.11a3.4,3.4,0,0,1-1.55-2.52h0c0-.86.69-1.12,1.55-.58l25.77,16.11a3.39,3.39,0,0,1,1.55,2.51h0C704.13,363.81,703.44,364.07,702.58,363.54Z"/><path class="cls-38" d="M687.86,360.6l-11.05-6.91a3.39,3.39,0,0,1-1.55-2.51h0c0-.86.69-1.12,1.55-.58l11.05,6.91a3.39,3.39,0,0,1,1.55,2.51h0C689.41,360.88,688.72,361.14,687.86,360.6Z"/><path class="cls-39" d="M660.74,371.5l4.88-1.83c.47-.18.47-.94,0-1.7s-1.24-1.24-1.71-1.07L659,368.73l-4.88-7.93c-.47-.76-1.23-1.24-1.7-1.06s-.47.94,0,1.7l4.88,7.93-4.88,1.83c-.47.18-.47.94,0,1.71s1.23,1.24,1.7,1.06l4.88-1.83,4.88,7.93c.47.77,1.24,1.24,1.71,1.07s.47-.94,0-1.71Z"/><path class="cls-40" d="M649.46,355.26a1.8,1.8,0,0,1,.28.14l17.69,11.06a3.5,3.5,0,0,1,1.55,2.41v17.61a1.49,1.49,0,0,1-.29-.14l-17.69-11a3.52,3.52,0,0,1-1.54-2.42V355.26m-.2-1.24c-.6,0-1,.41-1,1.17v17.68a4.63,4.63,0,0,0,2.1,3.42l17.69,11.06a2.2,2.2,0,0,0,1.11.37c.6,0,1-.41,1-1.17V368.87a4.64,4.64,0,0,0-2.11-3.42L650.37,354.4a2.13,2.13,0,0,0-1.11-.38Z"/><path class="cls-41" d="M702.58,390.12,676.81,374a3.39,3.39,0,0,1-1.55-2.52h0c0-.85.69-1.11,1.55-.58L702.58,387a3.4,3.4,0,0,1,1.55,2.52h0C704.13,390.39,703.44,390.65,702.58,390.12Z"/><path class="cls-42" d="M702.58,396.39l-25.77-16.11a3.4,3.4,0,0,1-1.55-2.52h0c0-.85.69-1.11,1.55-.58l25.77,16.11a3.39,3.39,0,0,1,1.55,2.51h0C704.13,396.66,703.44,396.92,702.58,396.39Z"/><path class="cls-43" d="M702.58,402.65l-25.77-16.11a3.39,3.39,0,0,1-1.55-2.51h0c0-.86.69-1.12,1.55-.58l25.77,16.11a3.39,3.39,0,0,1,1.55,2.51h0C704.13,402.93,703.44,403.19,702.58,402.65Z"/><path class="cls-44" d="M687.86,399.72l-11.05-6.91a3.39,3.39,0,0,1-1.55-2.52h0c0-.85.69-1.11,1.55-.58l11.05,6.91a3.4,3.4,0,0,1,1.55,2.52h0C689.41,400,688.72,400.26,687.86,399.72Z"/><path class="cls-45" d="M649.46,394.37a2,2,0,0,1,.28.15l17.69,11.05A3.52,3.52,0,0,1,669,408V425.6a1.62,1.62,0,0,1-.29-.15L651,414.4a3.48,3.48,0,0,1-1.54-2.41V394.37m-.2-1.23c-.6,0-1,.41-1,1.16V412a4.64,4.64,0,0,0,2.1,3.42l17.69,11a2.13,2.13,0,0,0,1.11.38c.6,0,1-.41,1-1.17V408a4.66,4.66,0,0,0-2.11-3.43l-17.69-11.05a2.2,2.2,0,0,0-1.11-.37Z"/><path class="cls-46" d="M702.58,429.24l-25.77-16.11a3.4,3.4,0,0,1-1.55-2.52h0c0-.85.69-1.11,1.55-.58l25.77,16.11a3.39,3.39,0,0,1,1.55,2.51h0C704.13,429.51,703.44,429.77,702.58,429.24Z"/><path class="cls-47" d="M702.58,435.5l-25.77-16.11a3.39,3.39,0,0,1-1.55-2.51h0c0-.86.69-1.12,1.55-.58l25.77,16.11a3.39,3.39,0,0,1,1.55,2.51h0C704.13,435.78,703.44,436,702.58,435.5Z"/><path class="cls-48" d="M702.58,441.77l-25.77-16.11a3.39,3.39,0,0,1-1.55-2.51h0c0-.86.69-1.12,1.55-.59l25.77,16.11a3.4,3.4,0,0,1,1.55,2.52h0C704.13,442,703.44,442.3,702.58,441.77Z"/><path class="cls-49" d="M687.86,438.84l-11.05-6.91a3.4,3.4,0,0,1-1.55-2.52h0c0-.85.69-1.11,1.55-.58l11.05,6.91a3.4,3.4,0,0,1,1.55,2.52h0C689.41,439.11,688.72,439.37,687.86,438.84Z"/><path class="cls-50" d="M598.49,292.48V411.3a2.4,2.4,0,0,1-3.71,2L463.86,330.66a12,12,0,0,1-5.59-10.11V201.71a2.4,2.4,0,0,1,3.71-2L592.9,282.37A12,12,0,0,1,598.49,292.48Z"/><path class="cls-51" d="M568.79,306l-2.2-1.39a3.72,3.72,0,0,1-1.56-2.23,60.16,60.16,0,0,0-4.14-12.64c-.39-.89-.32-1.66.21-1.86l1.55-.57c.72-.27.72-1.43,0-2.6l-6.4-10.42c-.72-1.17-1.88-1.9-2.59-1.64l-1.55.57c-.53.2-1.35-.24-2-1a78.35,78.35,0,0,0-10-10.46,3.5,3.5,0,0,1-1.26-2.35v-2.2a4.07,4.07,0,0,0-1.83-3l-9-5.69a1.38,1.38,0,0,0-1.37-.22v0L521.39,251a25.36,25.36,0,0,0-6.57-1,2.77,2.77,0,0,1-2-1.46L511.29,246c-.72-1.17-1.88-1.9-2.6-1.63l-6.4,2.36-9.15,4.81s4.17,2.71,4.52,3,2.8,1.22,3.55,1.59a2.39,2.39,0,0,0,1.09,0,17.4,17.4,0,0,0-2.39,5.26c-.17.62-.8.75-1.55.28l-2.21-1.39a1.33,1.33,0,0,0-1.42-.18v0l-9,4.73s2.92,3.71,3.19,4a6.26,6.26,0,0,0,2.15.38,35,35,0,0,0,3.23-2.43V270a4.08,4.08,0,0,0,1.83,3l2.21,1.39a3.71,3.71,0,0,1,1.55,2.23,60.79,60.79,0,0,0,4.15,12.64c.39.89.32,1.66-.21,1.85l-1.55.58-9.16,4.81,6.33,3.33,2.36-6.79a3.24,3.24,0,0,0,.47,1.24l6.39,10.43c.72,1.17,1.88,1.9,2.6,1.63l1.55-.57c.53-.2,1.35.24,2,1a79.51,79.51,0,0,0,10,10.46,3.44,3.44,0,0,1,1.26,2.34v2.21a4.06,4.06,0,0,0,1.84,3l5.95,3.75h0c-.3-.19-5.07,1.85-5.07,1.85l-.22,1.71.56,3.46,9.21-4.83h0a1,1,0,0,0,.47-.91v-2.21c0-.75.53-1.05,1.26-.76a30.46,30.46,0,0,0,7.51,2,3,3,0,0,0-.47.89c0,.33,1.4,4.45,1.4,4.45l5,2.9,9.16-4.81c.72-.26.72-1.43,0-2.59l-1.55-2.53c-.53-.86-.61-1.73-.21-2.12a13.19,13.19,0,0,0,1.72-2.11l7.51-3.94h0a.93.93,0,0,0,.51-.94V309A4.07,4.07,0,0,0,568.79,306Zm-34.17,4.17C522.91,304.09,513,288.72,513,277.27c0-10.72,8.69-14,19.43-7.19,11.51,7.24,20.66,23,19.31,33.9C550.75,312.24,543.53,314.86,534.62,310.2Z"/><path class="cls-14" d="M487,277.81l2.2,1.39a3.77,3.77,0,0,1,1.56,2.24,60.16,60.16,0,0,0,4.14,12.64c.39.88.32,1.66-.21,1.85l-1.55.58c-.72.26-.72,1.42,0,2.59l6.4,10.43c.71,1.17,1.87,1.9,2.59,1.63l1.55-.57c.53-.2,1.35.24,2,1a78.88,78.88,0,0,0,10,10.45,3.5,3.5,0,0,1,1.26,2.35v2.21a4.07,4.07,0,0,0,1.83,3l9.05,5.7c1,.64,1.83.33,1.83-.68v-2.21c0-.75.53-1.05,1.26-.76a28.2,28.2,0,0,0,10,2.18,2.75,2.75,0,0,1,2,1.46l1.55,2.53c.72,1.16,1.88,1.89,2.59,1.63l6.4-2.37c.72-.27.72-1.43,0-2.59L551.94,332c-.53-.86-.6-1.73-.21-2.12a16.09,16.09,0,0,0,4.15-7.42c.17-.62.8-.75,1.55-.28l2.2,1.39c1,.64,1.84.33,1.84-.68v-9.05a4.06,4.06,0,0,0-1.84-3l-2.2-1.39a3.73,3.73,0,0,1-1.55-2.23,61.62,61.62,0,0,0-4.14-12.65c-.4-.88-.33-1.65.2-1.85l1.55-.57c.72-.27.72-1.43,0-2.6l-6.4-10.42c-.71-1.17-1.87-1.9-2.59-1.64l-1.55.57c-.53.2-1.35-.24-2-1a78.42,78.42,0,0,0-10-10.46,3.5,3.5,0,0,1-1.26-2.35V262a4.07,4.07,0,0,0-1.83-3l-9.05-5.69c-1-.64-1.83-.34-1.83.67v2.2c0,.75-.53,1.05-1.26.76a28,28,0,0,0-10-2.17,2.78,2.78,0,0,1-2-1.46l-1.55-2.52c-.72-1.17-1.88-1.9-2.59-1.64l-6.4,2.37c-.72.27-.72,1.43,0,2.6l1.55,2.52c.53.87.6,1.73.21,2.12a16,16,0,0,0-4.14,7.43c-.17.62-.81.75-1.56.28L487,265.1c-1-.64-1.84-.34-1.84.68v9A4,4,0,0,0,487,277.81Zm16.88,4.27c0-10.72,8.69-14,19.44-7.2,11.5,7.25,20.66,23,19.3,33.91-1,8.26-8.25,10.88-17.16,6.22C513.76,308.9,503.88,293.53,503.88,282.08Z"/><path class="cls-52" d="M578.85,375,477.91,311.21a4.23,4.23,0,0,1-1.9-3.11c0-1.05.85-1.36,1.9-.7l100.94,63.78a4.21,4.21,0,0,1,1.9,3.11C580.75,375.34,579.9,375.65,578.85,375Z"/><path class="cls-53" d="M578.85,384.79,477.91,321a4.23,4.23,0,0,1-1.9-3.11c0-1,.85-1.36,1.9-.7L578.85,381a4.21,4.21,0,0,1,1.9,3.11C580.75,385.14,579.9,385.45,578.85,384.79Z"/><path class="cls-54" d="M533.15,365.82l-55.24-35a4.23,4.23,0,0,1-1.9-3.11c0-1.05.85-1.36,1.9-.7l55.24,35a4.26,4.26,0,0,1,1.91,3.11C535.06,366.17,534.2,366.48,533.15,365.82Z"/><path class="cls-55" d="M532.72,411.91v37a2.4,2.4,0,0,1-3.71,2L366.66,348.59a12,12,0,0,1-5.59-10.11v-37a2.4,2.4,0,0,1,3.71-2L527.13,401.8A12,12,0,0,1,532.72,411.91Z"/><path class="cls-12" d="M523.82,429.09c0-.25-.1-.52-.15-.78s-.11-.67-.2-1-.21-.74-.33-1.11-.13-.46-.21-.69c-.16-.45-.35-.9-.54-1.35l-.17-.41c-.24-.52-.5-1-.77-1.53l-.09-.18c-.31-.55-.64-1.08-1-1.6l0,0a21.22,21.22,0,0,0-2.39-3l1.68-.86h0a2.88,2.88,0,0,0,.71-.55l.11-.13a3.14,3.14,0,0,0,.42-.63A1.69,1.69,0,0,0,521,415a4.81,4.81,0,0,0,.24-.73c0-.11.06-.21.08-.32a7.78,7.78,0,0,0,.12-1.24,9.72,9.72,0,0,0-.16-1.67c0-.2-.09-.41-.14-.62-.08-.37-.17-.74-.29-1.12-.08-.22-.16-.45-.25-.68s-.28-.72-.45-1.08q-.13-.31-.3-.63c-.2-.39-.42-.76-.65-1.13-.07-.11-.12-.23-.19-.33s-.1-.14-.14-.21l-.46-.63c-.16-.22-.32-.42-.49-.63s-.33-.39-.5-.58l-.6-.6c-.16-.15-.31-.31-.47-.45a10.52,10.52,0,0,0-1.15-.87c-1.62-1-3.09-1.28-4.2-.84h0l-.06,0-.28.14-4,2,2.51,5.08.37.74,0,.08L511,413l-.06,0h0l-6,3,1.22.76c.62.39,1.27.77,1.35.79l.1,0,.73.12c0,.25,0,.49,0,.76v2.6l3.29,2.13,5,3.2-.16.66,3.3,8.51,4.22-2.14v-2.6A15.31,15.31,0,0,0,523.82,429.09Z"/><path class="cls-14" d="M511,403.6c3.45,2.24,6.24,7.27,6.23,11.23,0,3.09-1.71,4.62-4.09,4.1,3.79,3.57,6.59,9.35,6.58,14.06v2.6l-17.58-11.37v-2.6c0-4.72,2.84-6.85,6.64-5.51a14.93,14.93,0,0,1-4.06-9.37C504.74,402.77,507.54,401.37,511,403.6Z"/><path class="cls-12" d="M474.3,185.75l-59.08-37.44a1,1,0,0,0-1,0h0l-2.43,1,2.39,2.17v44.47a2.22,2.22,0,0,0,1,1.86L472.37,234l.56,2.86,2.38-1h0a.84.84,0,0,0,.57-.8V188.56A3.34,3.34,0,0,0,474.3,185.75Z"/><path class="cls-56" d="M473.41,189.59v46.54a.87.87,0,0,1-1.37.71L412.31,199a2.2,2.2,0,0,1-1-1.85v-47a.93.93,0,0,1,1.47-.77l59.08,37.44A3.37,3.37,0,0,1,473.41,189.59Z"/><line class="cls-57" x1="413.56" y1="156.75" x2="470.2" y2="192.62"/><path class="cls-14" d="M460.59,184.78l-2.43-1.54a1.38,1.38,0,0,1-.62-1v-2.43c0-.34.27-.45.62-.23l2.43,1.54a1.39,1.39,0,0,1,.62,1v2.43C461.21,184.89,460.93,185,460.59,184.78Z"/><path class="cls-14" d="M465.08,187.62l-2.42-1.53a1.39,1.39,0,0,1-.63-1v-2.43c0-.35.28-.45.63-.23l2.42,1.54a1.37,1.37,0,0,1,.63,1v2.43C465.71,187.74,465.43,187.84,465.08,187.62Z"/><path class="cls-14" d="M469.58,190.47l-2.43-1.54a1.37,1.37,0,0,1-.62-1v-2.43c0-.35.28-.45.62-.23l2.43,1.54a1.37,1.37,0,0,1,.62,1v2.43C470.2,190.59,469.92,190.69,469.58,190.47Z"/><path class="cls-14" d="M430.44,171.71v12.72a.8.8,0,0,1-1.26.66l-14.87-9.39a2.07,2.07,0,0,1-1-1.72V160.8a.87.87,0,0,1,1.37-.71l14.26,9A3.1,3.1,0,0,1,430.44,171.71Z"/><path class="cls-14" d="M430.44,189.24v.81a.8.8,0,0,1-1.26.66l-14.87-9.4a2.05,2.05,0,0,1-1-1.72v-1.26a.87.87,0,0,1,1.37-.71l14.26,9A3.1,3.1,0,0,1,430.44,189.24Z"/><path class="cls-14" d="M430.44,194.39v.81a.8.8,0,0,1-1.26.66l-14.87-9.39a2.08,2.08,0,0,1-1-1.72v-1.26a.87.87,0,0,1,1.37-.72l14.26,9A3.1,3.1,0,0,1,430.44,194.39Z"/><path class="cls-14" d="M430.44,199.55v.8a.8.8,0,0,1-1.26.66l-14.87-9.39a2.07,2.07,0,0,1-1-1.72v-1.26a.87.87,0,0,1,1.37-.71l14.26,9A3.09,3.09,0,0,1,430.44,199.55Z"/><path class="cls-14" d="M430.44,204.7v.81a.8.8,0,0,1-1.26.66l-14.87-9.39a2.08,2.08,0,0,1-1-1.73V193.8a.87.87,0,0,1,1.37-.72l14.26,9A3.1,3.1,0,0,1,430.44,204.7Z"/><path class="cls-58" d="M416.48,165.25v1.13l5.26,6.19L427,173v-1.18a1.26,1.26,0,0,0-.61-1.07l-9.29-5.84A.41.41,0,0,0,416.48,165.25Z"/><path class="cls-59" d="M421.74,173.47l-5.26-6.2v4.94a1.53,1.53,0,0,0,.71,1.28l9.1,5.72a.47.47,0,0,0,.73-.38v-4.94Z"/><path class="cls-14" d="M470.2,196.32v35a.53.53,0,0,1-.83.43l-36.44-23.09a1.36,1.36,0,0,1-.63-1.13V172.23a.57.57,0,0,1,.9-.47l36,22.84A2,2,0,0,1,470.2,196.32Z"/><path class="cls-60" d="M435.81,179.77l30.69,19.45a.37.37,0,0,0,.58-.3v-1.85a.94.94,0,0,0-.44-.78L436,176.84a.37.37,0,0,0-.58.3V179A.94.94,0,0,0,435.81,179.77Z"/><path class="cls-61" d="M435.81,185.32l30.69,19.45a.37.37,0,0,0,.58-.3v-1.85a.94.94,0,0,0-.44-.78L436,182.39a.37.37,0,0,0-.58.3v1.85A.94.94,0,0,0,435.81,185.32Z"/><path class="cls-62" d="M435.81,190.87l30.69,19.45a.37.37,0,0,0,.58-.3v-1.85a.94.94,0,0,0-.44-.78L436,187.93a.37.37,0,0,0-.58.31v1.85A.94.94,0,0,0,435.81,190.87Z"/><path class="cls-63" d="M435.81,196.42l30.69,19.45a.37.37,0,0,0,.58-.3v-1.85a1,1,0,0,0-.44-.79L436,193.48a.37.37,0,0,0-.58.3v1.85A.94.94,0,0,0,435.81,196.42Z"/><path class="cls-64" d="M435.81,202l30.69,19.45a.37.37,0,0,0,.58-.3v-1.85a.94.94,0,0,0-.44-.79L436,199a.37.37,0,0,0-.58.3v1.85A1,1,0,0,0,435.81,202Z"/><path class="cls-65" d="M435.81,207.51,466.5,227a.37.37,0,0,0,.58-.3v-1.85a.94.94,0,0,0-.44-.78L436,204.58a.37.37,0,0,0-.58.3v1.85A.94.94,0,0,0,435.81,207.51Z"/><path class="cls-66" d="M406.3,89.35s-10.22.77-14,2.09c-5.13,1.79-7.2,7.52-4.83,11S409.2,105,409.2,105Z"/><path class="cls-13" d="M420.08,87.74c-6.43-.27-13.09,1.15-18.92,1.88-.9.11-3.63,6.58,1.62,16.76,6.54.3,15.78,1.28,15.78,1.28S424.72,87.94,420.08,87.74Z"/><path class="cls-13" d="M462.31,111.7c-.1.42-5.25,11.51-6.44,15.4-.48,1.57-1,3.16-1.62,4.73l-38.76-24.48c-.95-12,2.38-19.78,3.78-19.68,15.11,1.13,30.21,8.35,36.66,15.48A43.58,43.58,0,0,1,462.31,111.7Z"/><path class="cls-67" d="M437.33,87l4.91,7c.76,1.25.23,2.68-.68,3.78-2.39,2.89-7.57,4-10.08,2-1.11-.79-.64-3.34-2.19-5.6l5.62-5.23Z"/><path class="cls-66" d="M417.09,81.18A40,40,0,0,0,420,91.93c2.25,4.95,2.84,6,5.13,6.54s4.19.2,7.24-2.79a18.12,18.12,0,0,0,4.22-7.07s.57.22,1.53-1.46c1.51-2.63,1.66-3.81,1-6.83a21.58,21.58,0,0,0-5.33-10.11c-3.16-3.45-10.1-.7-13,1.65S417,77.68,417.09,81.18Z"/><path class="cls-30" d="M437.93,70.38a5.37,5.37,0,0,0-3.76-1.4s-6.84-4.5-12.51-.11a19.67,19.67,0,0,0-6,7.51c-.91,1.89-3.72,9.42,2.12,11.11a15.51,15.51,0,0,0,8,.18,6.65,6.65,0,0,0,3.22-3,5.9,5.9,0,0,0,2.63.73,5.21,5.21,0,0,1,2,1.82l.74-.77a13.65,13.65,0,0,1-.32-3.43,2.2,2.2,0,0,1,3.82-1.24c1.36,1.4.34,4.28-.13,5.85l.76,1.08a22.63,22.63,0,0,0,1.87-9.57C440,73.82,439,71.46,437.93,70.38Z"/><path class="cls-66" d="M416.41,136.26a4.12,4.12,0,0,0-.85-.63c.37.15.65.23.71.17.27-.2.09-.7-.1-1a10.9,10.9,0,0,0-1.6-1.38c-.31-.32-.57-.6-.72-.74a9.33,9.33,0,0,1-1.57-2.86c.11-.15.66.73,1.77,1.29s1.9.29,1.75-.16a17.8,17.8,0,0,0-2.26-3.77c-.9-1-3.24-1.74-4.19-2.35a3,3,0,0,1-1.22-1.61c-1.39-3.41-3.55-8.68-5.65-13.7-2.82-6.76-2.72-8.72-4.38-11.21-4.79-7.16-8.33-5.47-8.33-5.47a9.56,9.56,0,0,0-3.3,10.14c.75,2.81,2.47,5.44,5.29,9.51a162.5,162.5,0,0,0,12.18,15.1c1.51,1.84,2.07,5.33,2.71,6.47.34.63,3.87,4.11,6.13,4.09.21,0,.15-.37.07-.62a5.41,5.41,0,0,0,2,.64c.48-.06.16-.81-.28-1.2h0a5.82,5.82,0,0,0,1.93.69C416.8,137.39,416.86,137,416.41,136.26Z"/><path class="cls-66" d="M466.92,122.71l-13.72,6,3.79,11s-6.84,13.22-10.92,21.28h0s-4.94,2.66-5.93,3.12a6.59,6.59,0,0,0-2.65,3.17,23.4,23.4,0,0,0-.67,5.14h0a7.85,7.85,0,0,0,.12,2.4c.24.3.87.27,1.22-.43-.13,1-.17,2.15,0,2.29.68.45,1.32-.69,1.33-.7a.73.73,0,0,0,.12.38,1.17,1.17,0,0,0,1.7-.51c1.64.7,2.6-1.66,2.6-1.66a20.22,20.22,0,0,1,2.12-2.17c1-.61,4.48-1,5.48-5.68h0a17.46,17.46,0,0,1,3.42-4.75c5.76-5.86,14.32-14.3,16-22.24C471.64,134.35,466.92,122.71,466.92,122.71Z"/><path class="cls-13" d="M456.83,104.5a34.27,34.27,0,0,1,5.48,7.2,76.91,76.91,0,0,1,7.54,16.77s1.09,6.26-16.71,8.42l-12-22.86Z"/><path class="cls-67" d="M400.79,105s-1.91-4.63-3.18-6.17a21.66,21.66,0,0,1,4.18,6.14Z"/><polygon class="cls-68" points="418.56 107.66 447.17 125.55 448.59 128.26 415.49 107.35 418.56 107.66"/><path class="cls-69" d="M590.59,440.67,551.17,415.9a2.5,2.5,0,0,0-2.51-.14h0L545,417.64s1.36,2,1.46,2.34c0,0,.08.11.17.17V454.7a5.63,5.63,0,0,0,2.66,4.74l40.92,25.72-.47,1.09.06.62,3.65-1.87a2.18,2.18,0,0,0,1.17-2V447.87A8.57,8.57,0,0,0,590.59,440.67Z"/><path class="cls-70" d="M591.08,449.7v35.16a2.24,2.24,0,0,1-3.51,1.84l-41.09-25.82a5.65,5.65,0,0,1-2.66-4.74V419.72a2.43,2.43,0,0,1,3.8-2L587,442.5A8.58,8.58,0,0,1,591.08,449.7Z"/><path class="cls-71" d="M562.38,438.48l11.54,17a.42.42,0,0,1-.24.66l-11.54,2.47a.46.46,0,0,1-.55-.45V438.69A.42.42,0,0,1,562.38,438.48Z"/><path class="cls-24" d="M373.8,498.85V499a2.6,2.6,0,0,1-.58,1.68c-1.77,2.07-5.94,2.94-6.8,3.11l-.15,0c-2.36.37-5,.51-6.14.63a16,16,0,0,0-2.3.4v.26a19,19,0,0,1-3.24.55h0a5.72,5.72,0,0,1-3.51-.79,3.31,3.31,0,0,1-1-1.64v-.07l0-.62v-.29l3.07-.21h0l1.52-.11,1.4-.09,1.31-.08Z"/><path class="cls-13" d="M360.47,494.27s2.84.48,5,.68a56.84,56.84,0,0,1,6.56.81,2.76,2.76,0,0,1,1.81,3c-.35,2.85-6.79,4.61-10.86,4.93a60.22,60.22,0,0,0-6.22.59c-1.93.32-3.93.48-5.15-.13-2.1-1-2.24-5.54-1-7.63S360.47,494.27,360.47,494.27Z"/><path class="cls-25" d="M351.63,491.64s-.15,3.2-.2,3.77-.34,1.08-.25,1.6c.14.81,2.06,1.63,4.69,1.33s4.79-1.75,5.27-2.56-.25-1-.38-1.39c-.19-.53,0-5.29-.35-3.67"/><path class="cls-24" d="M342.62,477.31a4.92,4.92,0,0,1-.1,2.33,7.58,7.58,0,0,1-1.8,2.83,14.61,14.61,0,0,1-2.9,2.4,21.23,21.23,0,0,0-2.42,1.7,16.29,16.29,0,0,0-1.73,2.25v.48a7.77,7.77,0,0,1-2.41,1.89,6,6,0,0,1-4.44.25,3.16,3.16,0,0,1-2.08-2.58c-.05-.35,0-1.64,0-1.64"/><path class="cls-13" d="M331.8,479.08a23.54,23.54,0,0,0,5.3-2.45c2.64-1.89,4.57-1.41,5.22-.29s.94,4.92-4.68,8.19a10.37,10.37,0,0,0-3.87,3.43,7.23,7.23,0,0,1-2.64,2.37,5.56,5.56,0,0,1-2.93.51c-3.84-.32-4.65-4.21-2.77-7.15S331.8,479.08,331.8,479.08Z"/><path class="cls-25" d="M326,480.8l-.14,2.89a2,2,0,0,0-.25,1.25c.19.79,2.41,2.3,5.46.69,3.41-1.79,3-4.47,3.06-4.62.18-1.21-.51-.07-.51-1"/><path class="cls-72" d="M371.72,431.27c-1.09,9.69-4.55,26.08-5.73,34.33-1.22,8.43-3.52,27.2-3.52,27.2s-1.23,1.94-5.68,2.54-6.24-2.06-6.24-2.06-1.46-26.39-1.15-31.19,1.71-13.66,1.5-18.37c-.14-3.39-.09-11.46-1.77-18.57-.24.75-.49,1.43-.74,2-2.54,5.73-7.34,18.06-8.68,22.73s-4.59,31.32-4.59,31.32a4.09,4.09,0,0,1-1.35,1.38,11.87,11.87,0,0,1-3.46,1.57c-4,1.11-5.39-1.17-5.39-1.17-.48-2.8-.11-33.55,1.23-38.77a120.55,120.55,0,0,0,3.26-18.41c.31-5,.93-16.19.31-22.74a19,19,0,0,1,.49-6.47,17.23,17.23,0,0,1,1.87-4.8s38.36,2.09,39.64,7.93a44,44,0,0,1,.8,5.63C373.2,413.31,372.59,423.58,371.72,431.27Z"/><path class="cls-73" d="M349.13,425.15c-.24.76-.49,1.43-.74,2a91.28,91.28,0,0,0-4.51-8.38c-3.65-6-3.27-8.74-3.65-11.09,1.25,5.72,6.65,10.39,6.65,10.39Z"/><path class="cls-25" d="M359.21,322.76a9.47,9.47,0,0,1-2.69,1.14l-.17.05a1.66,1.66,0,0,0-.21.06,7.21,7.21,0,0,0-.72.27,1,1,0,0,0-.56.52c-.35.9,0,6.29,0,6.29l-1.7-.59L342.82,327s.14-2.78,0-5.33-.35-16.19,3-18.54,13.14-.9,14.25.41c0,0,.32,2.08,1,6S361.15,321.49,359.21,322.76Z"/><path class="cls-74" d="M345.52,298.45c-6.21,2.15-7.63,7.68-7.36,11.55s2.45,6.68,3,8,.61,2.09,1,2.83,4.26,4,8.12,2.94c1.75-.47,2.56-3.05,2.7-4.15s.26-4.17.54-5.13,1.21-1.88,1.9-1.74,1.11,1.33,1.39,2.53.87,1.2,1.15.93.14-3.28.32-4.2,1.78-1.68,1.93-4.39c.06-1,.79-2,1.34-3.41,1.6-5.37-3.37-8.64-6.89-9.51C350.94,293.74,348.55,297.4,345.52,298.45Z"/><polygon class="cls-75" points="364.73 330.02 364.73 361.16 401.79 384.3 401.79 353.17 364.73 330.02"/><polygon class="cls-76" points="364.73 330.02 364.73 361.16 338.58 374.82 338.58 343.68 364.73 330.02"/><path class="cls-77" d="M398.27,346.61l-13.2,20.22a1,1,0,0,1-1.3.3l-27.49-16.6a1,1,0,0,1-.31-1.35l13.52-20.69a.94.94,0,0,1,1.31-.29L398,345.27A1,1,0,0,1,398.27,346.61Z"/><path class="cls-78" d="M368.14,359.93l-9.23.48a1.16,1.16,0,0,1-1.22-1.11L356.48,329a1.15,1.15,0,0,1,1.09-1.2l9.23-.5a1.16,1.16,0,0,1,1.22,1.11l1.22,30.31A1.17,1.17,0,0,1,368.14,359.93Z"/><path class="cls-79" d="M387.27,373.71H372.45a.91.91,0,0,1-.9-.86l-.93-18.74a.91.91,0,0,1,.9-.95h14.8a.9.9,0,0,1,.9.86l.95,18.74A.91.91,0,0,1,387.27,373.71Z"/><polygon class="cls-80" points="401.78 353.16 401.78 384.3 375.62 397.95 375.62 366.82 401.78 353.16"/><polygon class="cls-81" points="338.57 343.68 338.57 374.81 375.62 397.95 375.62 366.82 338.57 343.68"/><path class="cls-82" d="M401.46,382.7a5.35,5.35,0,0,0-1.86-.61,14.61,14.61,0,0,1-3.87-.44,17,17,0,0,1-3.25-2.35h0c-3.27-3.18-8.34-8.08-11.62-10.86-.76-2.26-2.32-7.4-2.62-8.17a12.06,12.06,0,0,1-5.93,5.27c-3.78,1.39-5.9.15-6.16,0h0c.17.37.36.74.54,1.07.6,1.18,1.89,3.35,2.65,4.63a8.22,8.22,0,0,0,4.19,4.29s6.76,3.89,12.75,6.66c.86.4,5.24,2.64,6.08,3.59,1.19,1.35,2.6,3,3.2,3,1,0,1.55-.54,2.25-.52s1.23-.69,1.58-.79a2.7,2.7,0,0,0,1.19-.68c.37-.37.35-2,.35-2l-.9.47s-1.24-.8-1.34-1.12a.37.37,0,0,1,.12-.47,16.42,16.42,0,0,1,1.9-.14C401.26,383.5,401.63,382.84,401.46,382.7Z"/><path class="cls-82" d="M378.59,361.11a19.35,19.35,0,0,1-4.9,3.79,12.42,12.42,0,0,0,4.55-4.62Z"/><path class="cls-13" d="M379.34,360.27s-.28.34-.75.84a18.85,18.85,0,0,1-4.91,3.79,4.83,4.83,0,0,1-.64.33l-.73.29c-.32.13-.66.23-1,.32a7.43,7.43,0,0,1-4.51,0,2.45,2.45,0,0,1-.3-.11l-.23-.12-.09,0s0,0-.05,0h0c.18.39.37.74.55,1.09.86,1.63,3.05,5.28,3.24,5.6v0h0a54.07,54.07,0,0,0,1.36,13.93,92.13,92.13,0,0,1,1.51,13.89v0c.27,4.5.42,11.88,0,9.82-.21-.94-2.21-7.23-2.49-7.23s-1,3.1-1,3.1c-.93,3.27-3.29,7.19-9.31,7.46a25.19,25.19,0,0,1-2.83-.08h-.05c-7.19-1.81-21.48-11.2-25-13.26a5.08,5.08,0,0,1-2.38-5h0c.1-.66.2-1.24.27-1.69v-.05c.12-.64.19-1,.19-1a103.25,103.25,0,0,1,3-15c2-6.69,1.83-11.73-2.58-19.37-5.46-9.49-7.91-22.63-2.18-28.21a9.4,9.4,0,0,1,10.81-2.34l1.34-1.46s9.87,2.2,17.23,6.84v1.44l.5.25c6.53,3.07,11.76,6.43,14.34,11.14A103.41,103.41,0,0,1,379.34,360.27Z"/><path class="cls-83" d="M357.76,333.36v.7s-7.75-3.34-12-4.72A88.9,88.9,0,0,1,357.76,333.36Z"/><path class="cls-84" d="M370.57,382.24a58.6,58.6,0,0,0-3.56-9.61c-2.61-5.91-5.23-10.81-7.34-16.8l4.81,8.63,1.67,1.1,0,.05c.16.36.33.7.51,1,.85,1.62,3.05,5.28,3.24,5.6l0,0v0A48.53,48.53,0,0,0,370.57,382.24Z"/><path class="cls-85" d="M182.1,77.81,164.49,66.72a1.88,1.88,0,0,0-1.94,0l-3.65,2,1.84,1.49.86,0V84.86a6.41,6.41,0,0,0,3,5.42l15.53,9.78-.31,2.07.82,1.17,3.44-1.85.09,0,.05,0h0a1.85,1.85,0,0,0,.9-1.59V83.24A6.42,6.42,0,0,0,182.1,77.81Z"/><path class="cls-86" d="M178.66,103.28,161.05,92.19a6.42,6.42,0,0,1-3-5.43V70.22a1.89,1.89,0,0,1,2.89-1.6l17.61,11.09a6.42,6.42,0,0,1,3,5.43v16.54A1.89,1.89,0,0,1,178.66,103.28Z"/><path class="cls-14" d="M244.08,117.72h0a.85.85,0,0,1-1.3.72L191.22,86a2.08,2.08,0,0,1-1-1.77h0a.84.84,0,0,1,1.29-.72L243.1,116A2.1,2.1,0,0,1,244.08,117.72Z"/><path class="cls-14" d="M241.56,124.62,191.22,92.93a2.1,2.1,0,0,1-1-1.77h0a.84.84,0,0,1,1.29-.72l50.33,31.7a2.08,2.08,0,0,1,1,1.77h0A.84.84,0,0,1,241.56,124.62Z"/><path class="cls-14" d="M227.81,121.36h0a.85.85,0,0,1-1.3.72L191.23,99.87a2.08,2.08,0,0,1-1-1.77v0a.85.85,0,0,1,1.3-.71l35.28,22.22A2.1,2.1,0,0,1,227.81,121.36Z"/><path class="cls-14" d="M207.49,115.5h0a.84.84,0,0,1-1.29.72l-15-9.42a2.1,2.1,0,0,1-1-1.77h0a.85.85,0,0,1,1.3-.72l15,9.42A2.08,2.08,0,0,1,207.49,115.5Z"/><path class="cls-14" d="M244.08,161.23h0a.85.85,0,0,1-1.3.72l-55.11-34.69a2.11,2.11,0,0,1-1-1.78v0a.85.85,0,0,1,1.29-.72l55.11,34.69A2.13,2.13,0,0,1,244.08,161.23Z"/><path class="cls-14" d="M238,165.89,187.68,134.2a2.11,2.11,0,0,1-1-1.78h0a.85.85,0,0,1,1.3-.72l50.32,31.69a2.11,2.11,0,0,1,1,1.78h0A.84.84,0,0,1,238,165.89Z"/><path class="cls-14" d="M241.23,174.85l-53.55-33.72a2.1,2.1,0,0,1-1-1.78h0a.85.85,0,0,1,1.3-.72l53.54,33.72a2.13,2.13,0,0,1,1,1.79h0A.85.85,0,0,1,241.23,174.85Z"/><path class="cls-14" d="M224,170.94l-36.33-22.87a2.12,2.12,0,0,1-1-1.79h0a.84.84,0,0,1,1.29-.71l36.33,22.87a2.13,2.13,0,0,1,1,1.79h0A.85.85,0,0,1,224,170.94Z"/><path class="cls-86" d="M178.66,144.2l-17.61-11.1a6.39,6.39,0,0,1-3-5.42V111.13a1.88,1.88,0,0,1,2.89-1.59l17.61,11.09a6.4,6.4,0,0,1,3,5.43V142.6A1.89,1.89,0,0,1,178.66,144.2Z"/><path class="cls-87" d="M197,172.57,165,152.4a4.31,4.31,0,0,0-6.61,3.65v46.5a10.66,10.66,0,0,0,5,9.09l32,20.18a4.31,4.31,0,0,0,6.61-3.65V181.66A10.7,10.7,0,0,0,197,172.57Zm-35.78-19.19a3,3,0,0,1,1.46-.38,3.13,3.13,0,0,1,1.63.47l32,20.18a9.41,9.41,0,0,1,4.42,8v3.55l-41.1-25.89v-3.27A3,3,0,0,1,161.26,153.38Zm38,77.45a3,3,0,0,1-3.09-.08l-32-20.19a9.4,9.4,0,0,1-4.41-8V160.82l41.1,25.9v41.45A3,3,0,0,1,199.21,230.83Z"/><path class="cls-14" d="M244.08,203.06h0a.85.85,0,0,1-1.3.72l-34.27-21.57a2.1,2.1,0,0,1-1-1.77h0a.84.84,0,0,1,1.29-.72l34.27,21.57A2.08,2.08,0,0,1,244.08,203.06Z"/><path class="cls-14" d="M240.84,208h0a.84.84,0,0,1-1.29.72l-31-19.55a2.08,2.08,0,0,1-1-1.77h0a.85.85,0,0,1,1.3-.72l31,19.55A2.08,2.08,0,0,1,240.84,208Z"/><path class="cls-14" d="M244.08,216.9v0a.85.85,0,0,1-1.3.71l-34.27-21.56a2.11,2.11,0,0,1-1-1.77v0a.84.84,0,0,1,1.29-.71l34.27,21.56A2.11,2.11,0,0,1,244.08,216.9Z"/><path class="cls-14" d="M226.85,213h0a.84.84,0,0,1-1.29.71l-17-10.72a2.08,2.08,0,0,1-1-1.77h0a.85.85,0,0,1,1.3-.72l17,10.73A2.1,2.1,0,0,1,226.85,213Z"/><path class="cls-82" d="M421.9,558.74s-.14,2.87-.18,3.38-.3,1-.23,1.42c.13.73,6.71,13.82,9.92,13.48,2.35-.24,5.74-2.72,2-4-1.86-1.08-3.2-11.49-3.31-11.79-.17-.48,0-4.74-.31-3.29Z"/><path class="cls-82" d="M408.07,553.09s-.14,2.86-.17,3.37-.31,1-.23,1.43c.12.73,6.7,13.81,9.91,13.48,2.36-.25,5.74-2.73,2-4-1.85-1.08-3.19-11.49-3.3-11.8-.18-.47,0-4.73-.32-3.29Z"/><path class="cls-88" d="M404.78,525.83c-.45,9.58,2.66,28.65,2.66,28.65s1.84,3,8.93-1c0,0,1.09-28.66,2.29-36.76a52.25,52.25,0,0,1,1.32-6.57h0a65.89,65.89,0,0,0,2.85-15.6c.22-4.53-.59-13.77-1.46-21.92s-1.84-15.34-1.84-15.34-7.23.24-12.4-4.86c0,0-8.46,11.48-3.09,23.54a26.54,26.54,0,0,1,2.15,8.82c.32,4.06.71,9.63.91,14.48.33,7.86.9,10.11.56,11S405.23,516.25,404.78,525.83Z"/><path class="cls-89" d="M415.58,483.89a147.85,147.85,0,0,1,4.4,26.28,65.89,65.89,0,0,0,2.85-15.6c.22-4.53-.59-13.77-1.46-21.92-2.71-2.13-7.62-6-7.62-6S411.72,474.15,415.58,483.89Z"/><path class="cls-88" d="M435,456.33a135.46,135.46,0,0,1,3.65,24.33c.57,12.43-2.19,30.22-2.76,34.44s-1.95,10.8-3.12,21.29c-1.1,9.88-2,22.5-2,22.5s-7.16,4.07-9.95.54c0,0-1.73-28-.93-36.65s2.58-9.28,2.36-12.13-3.35-26.14-4.72-28.19-7.88-11.26-1-25.63A43,43,0,0,0,435,456.33Z"/><path class="cls-90" d="M474.26,420.84l-16.41,25.9a2.56,2.56,0,0,1-3.53.8l-31.86-20.11a2.56,2.56,0,0,1-.77-3.58l6.95-10.55,9.93-15.05a2.57,2.57,0,0,1,3.51-.76l31.38,19.81A2.57,2.57,0,0,1,474.26,420.84Z"/><path class="cls-91" d="M471.68,421l-14.8,23.36a2.31,2.31,0,0,1-3.18.72L425,427a2.31,2.31,0,0,1-.7-3.23l6.27-9.52,9-13.58a2.31,2.31,0,0,1,3.16-.68L471,417.81A2.33,2.33,0,0,1,471.68,421Z"/><path class="cls-82" d="M458.81,432.73a5,5,0,0,0,.87-1.31,4.79,4.79,0,0,1,.87-2c.62-.78,2.4-3.85,2.76-3.64a2.21,2.21,0,0,1,.44,2.28c-.28,1.2-.78,2-.8,2.27s2.05.36,3.3-.06a16.66,16.66,0,0,0,3.54-2.33,2,2,0,0,1,.12,1.34c-.35,1-1.32,1.83-1.52,2.6a37.52,37.52,0,0,1-2.51,4.51Z"/><path class="cls-82" d="M424.28,420.38l3.7-3.58a6,6,0,0,1,1.69-1.15,8.33,8.33,0,0,0,1.75-1c.88-.71,1.25-2.52,1.59-3.2s2.45-2.52,2.65-3,.27-1.29-.43-1.23a19.29,19.29,0,0,0-4,2.18l1.69-2.56s-2.74,1.1-4.41,2-2.1,3.22-2.75,3.79-5.11,4-5.11,4Z"/><path class="cls-92" d="M431.65,383.76s1.18,4.37-1.74,7.1-1.64-6-1.64-6Z"/><path class="cls-82" d="M413.72,416.16,423.83,415l1.52.53a31.12,31.12,0,0,1-.28-8.17,23.64,23.64,0,0,0,4.2-2.26c2.05-1.49,1.85-8.44,1.69-12-.18-3.67-.52-7.78-.52-7.78-1-1.17-10.12-.05-13.16,2.07s-2.86,14.34-2.74,16.63,0,7.73,0,7.73Z"/><path class="cls-13" d="M407.81,443.49c.45,6.37-2.8,12.65-2.8,12.65a39.68,39.68,0,0,0,17.86,6.9c8.08,1.08,13.2-2.1,13.2-2.1s-1.28-6.39-1.81-11.63a32.91,32.91,0,0,1-.21-4.52c.09-2.06.62-5.93,1.11-9.94.67-5.47,1.26-11.28.55-13.41-1.21-3.73-10.41-9.55-10.41-9.55s-11,.74-10.76-2.41c0,0-6-.89-8.71.41s-3.19,8.8-2.35,15.11S407.36,437.1,407.81,443.49Z"/><path class="cls-93" d="M425.34,428.61a142.34,142.34,0,0,0,4,14.94s.92.06,2.25,0l2.63,5.76a32.91,32.91,0,0,1-.21-4.52c.09-2.06.62-5.93,1.11-9.94l-.43-1.45Z"/><path class="cls-82" d="M465.88,436.35a4,4,0,0,1-2.25,1l-.2,0c-1.35.18-1.61,0-2.95.12s-14.09,11.81-16,13.56l-.24.23v0c-.11.09-.24.17-.34.24-3.69,2.57-4.79,1.32-6.83-1.8-.58-.87-1.45-2.42-2.35-4.1l-.55-1.05-.07-.14s0,0,0,0c-.5-.91-1-1.82-1.39-2.64-.93-1.77-1.59-3.11-1.59-3.11a35.41,35.41,0,0,0,3.75-1.22c2.68-1,5.81-2.13,5.83-2.14.11.26.34.93.63,1.74.57,1.65,1.36,3.88,1.6,4.47,4.69-2.69,13.57-7.43,15-8.27.33-.19.7-.44,1.09-.72,1.25-.88,2.68-2,3.55-2.59A16.9,16.9,0,0,0,465,435C465.47,435.79,465.88,436.35,465.88,436.35Z"/><path class="cls-13" d="M435.71,421.44l6.1,15.09s-5.17,5.36-10.8,5.36c0,0-5.88-11.07-6.21-16.08Z"/><path class="cls-13" d="M414.58,407.62l-.53,1.79a3,3,0,0,0,2,2.65c3.49,1.4,8.68.67,9.93.3l-.76-2.42S418.12,411,414.58,407.62Z"/><path class="cls-92" d="M418.76,402.43s3.71,5.76.5,10.88-11.36,2.59-11.36-2.69c0-6.88,4.32-8.88,4.32-8.88Z"/><path class="cls-92" d="M407.83,388.82c.94-6.57,5.89-12.2,16.94-10.35,2.31.39,7.42,2.4,6.9,6.56a4.06,4.06,0,0,1-.6,1.77c.64,2.31.72,6.73-6.53,10.28.12,1.29-.69,1.51-1,3.75-.44,3.48-3.8,5.74-8.3,5.08C411.72,405.39,406.15,400.61,407.83,388.82Z"/><path class="cls-14" d="M419.39,566.42c.19,1.73,1.91,5.16,2.2,6.38s.9,9.05.9,9.05h1.3l.31-8.86v0c.12.32,1,3,1.47,4.49s4.27,3,5.56,3,7-4,8.34-6.21-6.11-1.26-6.11-1.26,2.05,1,1.21,2-2.81.51-4.15-1.25c-1.63-2.15-4.35-14.29-9.05-11.19C421.38,562.57,419.15,564.21,419.39,566.42Z"/><path class="cls-94" d="M424.1,573v0c.12.32,1,3,1.47,4.49s4.27,3,5.56,3c-.62-.08-1.53-1.54-2.73-3.86-1.85-3.58-3-4.94-3.58-4.65A1.51,1.51,0,0,0,424.1,573Z"/><path class="cls-14" d="M405.56,560.77c.19,1.73,1.91,5.15,2.2,6.37s.9,9.05.9,9.05H410l.32-8.85v0c.11.32,1,3,1.46,4.49s4.27,3,5.57,2.95,7-3.94,8.33-6.21-6.11-1.25-6.11-1.25,2,1,1.21,2-2.8.5-4.15-1.26c-1.63-2.14-4.35-14.29-9.05-11.19C407.55,556.91,405.32,558.55,405.56,560.77Z"/><path class="cls-95" d="M410.28,567.34v0c.11.32,1,3,1.46,4.49s4.27,3,5.57,2.95c-.63-.08-1.54-1.53-2.74-3.86-1.85-3.58-3-4.93-3.58-4.65A1.49,1.49,0,0,0,410.28,567.34Z"/><path class="cls-69" d="M517.17,135.55l-23.87-15a1.52,1.52,0,0,0-1.52-.09h0l-2.57,1.31s.83,1.24.89,1.42.05.07.1.1v20.93a3.42,3.42,0,0,0,1.61,2.87l24.79,15.58-.29.66,0,.37,2.57-1.32a1.31,1.31,0,0,0,.71-1.18v-21.3A5.18,5.18,0,0,0,517.17,135.55Z"/><path class="cls-96" d="M517.1,141.2v21.3a1.35,1.35,0,0,1-2.12,1.11L490.1,148a3.41,3.41,0,0,1-1.62-2.87V123a1.47,1.47,0,0,1,2.3-1.2l23.88,15A5.19,5.19,0,0,1,517.1,141.2Z"/><path class="cls-14" d="M509.65,154.56l-3.75-6.27a.94.94,0,0,1,.27-1.23,3.92,3.92,0,0,0,1.26-3.23c0-4-3.25-9.44-7.25-12.13s-7.26-1.63-7.26,2.37,3.26,9.45,7.26,12.14a9.24,9.24,0,0,0,2.59,1.25,3.58,3.58,0,0,1,2,1.62l3.54,5.92a2.35,2.35,0,0,0,.66.73.83.83,0,0,0,.67.17C510,155.78,510,155.18,509.65,154.56Zm-14.84-19.22c0-3,2.41-3.74,5.37-1.75s5.37,6,5.37,9-2.41,3.75-5.37,1.76S494.81,138.3,494.81,135.34Z"/><path class="cls-97" d="M600.59,191.24V208.3a1.08,1.08,0,0,1-1.69.9l-74.39-46.88a2.74,2.74,0,0,1-1.29-2.3V142.34a1.18,1.18,0,0,1,1.84-1l73.57,46.37A4.15,4.15,0,0,1,600.59,191.24Z"/><g class="cls-98"><path class="cls-14" d="M595.4,192.28,527.47,149a2.3,2.3,0,0,1-1-1.66h0c0-.56.46-.72,1-.37l67.93,43.31a2.23,2.23,0,0,1,1,1.65h0C596.41,192.47,596,192.64,595.4,192.28Z"/><path class="cls-14" d="M575.27,184.72l-47.8-30.47a2.28,2.28,0,0,1-1-1.65h0c0-.56.46-.73,1-.37l47.8,30.47a2.25,2.25,0,0,1,1,1.65h0C576.28,184.91,575.83,185.08,575.27,184.72Z"/><path class="cls-14" d="M550.36,174.2l-22.89-14.59a2.28,2.28,0,0,1-1-1.65h0c0-.56.46-.73,1-.37l22.89,14.59a2.25,2.25,0,0,1,1,1.65h0C551.37,174.39,550.92,174.56,550.36,174.2Z"/><path class="cls-14" d="M562.68,182l-8.43-5.39a2.28,2.28,0,0,1-1-1.66h0c0-.55.46-.72,1-.36l8.43,5.39a2.27,2.27,0,0,1,1,1.66h0C563.69,182.24,563.24,182.4,562.68,182Z"/></g><path class="cls-99" d="M360.81,43.18V50a.44.44,0,0,1-.68.36l-8-5a1.1,1.1,0,0,1-.52-.92V37.37a.47.47,0,0,1,.74-.39l7.63,4.8A1.66,1.66,0,0,1,360.81,43.18Z"/><path class="cls-100" d="M727.15,279.74v7.63a.49.49,0,0,1-.76.4l-8.91-5.6a1.22,1.22,0,0,1-.58-1v-7.9a.52.52,0,0,1,.82-.43l8.55,5.37A1.87,1.87,0,0,1,727.15,279.74Z"/><path class="cls-101" d="M679.27,260.2v6a.39.39,0,0,1-.6.32l-7-4.39a.94.94,0,0,1-.45-.8v-6.18a.41.41,0,0,1,.64-.34l6.69,4.2A1.49,1.49,0,0,1,679.27,260.2Z"/><path class="cls-102" d="M492.49,77.4v6a.38.38,0,0,1-.59.32l-7-4.38a1,1,0,0,1-.45-.81V72.31a.41.41,0,0,1,.64-.34l6.69,4.21A1.45,1.45,0,0,1,492.49,77.4Z"/><path class="cls-103" d="M748.45,375.13v6a.38.38,0,0,1-.6.31l-7-4.38a.94.94,0,0,1-.45-.8v-6.18a.41.41,0,0,1,.64-.34l6.69,4.2A1.45,1.45,0,0,1,748.45,375.13Z"/><path class="cls-104" d="M693.42,515.66v6a.38.38,0,0,1-.59.31l-7-4.38a1,1,0,0,1-.45-.81v-6.18a.41.41,0,0,1,.65-.33l6.69,4.2A1.46,1.46,0,0,1,693.42,515.66Z"/><path class="cls-105" d="M144.46,187.45v6a.39.39,0,0,1-.6.32l-7-4.39a.94.94,0,0,1-.45-.8v-6.18a.41.41,0,0,1,.64-.34l6.69,4.2A1.46,1.46,0,0,1,144.46,187.45Z"/><path class="cls-106" d="M209.56,64.64v9a.57.57,0,0,1-.9.47l-10.57-6.63a1.47,1.47,0,0,1-.68-1.22V56.93a.63.63,0,0,1,1-.51l10.13,6.37A2.21,2.21,0,0,1,209.56,64.64Z"/><path class="cls-107" d="M392.17,55.67v9a.58.58,0,0,1-.9.48l-10.56-6.64a1.45,1.45,0,0,1-.69-1.22V48a.63.63,0,0,1,1-.52l10.13,6.37A2.22,2.22,0,0,1,392.17,55.67Z"/><path class="cls-108" d="M598.53,109.85v5.81a.37.37,0,0,1-.58.31l-6.79-4.27a.94.94,0,0,1-.44-.79v-6a.4.4,0,0,1,.63-.33l6.51,4.1A1.4,1.4,0,0,1,598.53,109.85Z"/><path class="cls-109" d="M716.9,228.44v5.81a.37.37,0,0,1-.58.3l-6.79-4.27a.94.94,0,0,1-.44-.78v-6a.4.4,0,0,1,.63-.33l6.51,4.1A1.42,1.42,0,0,1,716.9,228.44Z"/><path class="cls-110" d="M645.24,210.69v3.71a.24.24,0,0,1-.37.2l-4.35-2.73a.58.58,0,0,1-.28-.5v-3.86a.26.26,0,0,1,.4-.21l4.17,2.62A.93.93,0,0,1,645.24,210.69Z"/><path class="cls-111" d="M547.51,130v3.72a.23.23,0,0,1-.37.19l-4.35-2.73a.61.61,0,0,1-.28-.5v-3.85a.25.25,0,0,1,.4-.21l4.17,2.62A.88.88,0,0,1,547.51,130Z"/><path class="cls-112" d="M203.92,287.59v3.72a.23.23,0,0,1-.37.19l-4.35-2.73a.61.61,0,0,1-.28-.5v-3.85a.25.25,0,0,1,.4-.21l4.17,2.62A.88.88,0,0,1,203.92,287.59Z"/><path class="cls-113" d="M299.24,82.49l-7.61-4.75V74.17c0-.68-.76-1.56-1.32-1.53l-8.95.45c-.5,0-.5.76,0,1.4l8.95,11.64c.56.73,1.32.8,1.32.12V82.68l7.61,4.75c.48.3.86.16.86-.32V83.9A1.9,1.9,0,0,0,299.24,82.49Z"/><path class="cls-12" d="M307.18,92.39l7.61,4.76v3.57c0,.68.76,1.56,1.32,1.53l8.95-.45c.49,0,.49-.76,0-1.41l-8.95-11.63c-.56-.73-1.32-.8-1.32-.12v3.57l-7.61-4.76c-.48-.3-.87-.15-.87.33V91A1.89,1.89,0,0,0,307.18,92.39Z"/><path class="cls-12" d="M351.47,116.24l-9-13.67c-.43-.65-1.08-1.06-1.51-.94l-9,2.4c-.38.1-.14.87.36,1.18l2.33,1.46v8.72a3,3,0,0,0,1.38,2.24l2.91,1.82c.39.24.71.12.71-.27v-4.33c0-.38.3-.49.68-.26l2.76,1.73a1.51,1.51,0,0,1,.68,1.1v4.34a1.53,1.53,0,0,0,.7,1.14l2.94,1.84c.77.48,1.39.24,1.39-.52v-8.71l2.33,1.45C351.61,117.28,351.85,116.8,351.47,116.24Z"/></g></g></svg>