<svg xmlns="http://www.w3.org/2000/svg" xmlns:xlink="http://www.w3.org/1999/xlink" viewBox="0 0 777.12 613.17"><defs><style>.cls-1{fill:#6de0f6;}.cls-2{isolation:isolate;}.cls-3{fill:url(#Áåçûìÿííûé_ãðàäèåíò_18);}.cls-4{fill:url(#Áåçûìÿííûé_ãðàäèåíò_28);}.cls-5{fill:url(#Áåçûìÿííûé_ãðàäèåíò_28-2);}.cls-6,.cls-7{fill:#0c0f38;}.cls-6{opacity:0.41;}.cls-7{opacity:0.34;}.cls-10,.cls-12,.cls-8{fill:#d4088c;}.cls-10,.cls-8,.cls-9{mix-blend-mode:lighten;}.cls-8{opacity:0.8;}.cls-17,.cls-9{fill:#6ee8fc;}.cls-11{fill:#6ee1f8;}.cls-13{fill:url(#Áåçûìÿííûé_ãðàäèåíò_388);}.cls-14,.cls-33{opacity:0.5;}.cls-14{fill:url(#Áåçûìÿííûé_ãðàäèåíò_388-2);}.cls-15{fill:#25bfec;}.cls-16{fill:url(#Áåçûìÿííûé_ãðàäèåíò_377);}.cls-18{fill:url(#Áåçûìÿííûé_ãðàäèåíò_300);}.cls-19{fill:#f88b93;}.cls-20{fill:url(#Áåçûìÿííûé_ãðàäèåíò_302);}.cls-21{clip-path:url(#clip-path);}.cls-22{fill:#267fe5;}.cls-23{fill:#18d0f7;}.cls-24{fill:url(#Áåçûìÿííûé_ãðàäèåíò_377-2);}.cls-25{fill:url(#Áåçûìÿííûé_ãðàäèåíò_300-2);}.cls-26{fill:url(#Áåçûìÿííûé_ãðàäèåíò_302-2);}.cls-27{clip-path:url(#clip-path-2);}.cls-28{fill:url(#Áåçûìÿííûé_ãðàäèåíò_377-3);}.cls-29{fill:url(#Áåçûìÿííûé_ãðàäèåíò_300-3);}.cls-30{fill:url(#Áåçûìÿííûé_ãðàäèåíò_302-3);}.cls-31{clip-path:url(#clip-path-3);}.cls-32{fill:url(#Áåçûìÿííûé_ãðàäèåíò_302-4);}.cls-33{fill:#0f133b;}</style><linearGradient id="Áåçûìÿííûé_ãðàäèåíò_18" x1="562.78" y1="1120.9" x2="648.61" y2="1120.9" gradientTransform="translate(1345.54 820.46) rotate(135)" gradientUnits="userSpaceOnUse"><stop offset="0" stop-color="#d4088c"/><stop offset="0.04" stop-color="#cc088c"/><stop offset="0.46" stop-color="#85078a"/><stop offset="0.76" stop-color="#590689"/><stop offset="0.91" stop-color="#480689"/></linearGradient><linearGradient id="Áåçûìÿííûé_ãðàäèåíò_28" x1="400.12" y1="1252.09" x2="435.67" y2="1252.09" gradientTransform="translate(598.12 1405.11) rotate(180)" gradientUnits="userSpaceOnUse"><stop offset="0" stop-color="#6ee8fc"/><stop offset="0.16" stop-color="#6ae2fb"/><stop offset="0.37" stop-color="#5ed1f7"/><stop offset="0.61" stop-color="#4bb5f1"/><stop offset="0.87" stop-color="#308ee8"/><stop offset="0.96" stop-color="#267fe5"/></linearGradient><linearGradient id="Áåçûìÿííûé_ãðàäèåíò_28-2" x1="298.7" y1="855.15" x2="378.62" y2="855.15" gradientTransform="translate(774.57 -588.31) rotate(26.7)" xlink:href="#Áåçûìÿííûé_ãðàäèåíò_28"/><linearGradient id="Áåçûìÿííûé_ãðàäèåíò_388" x1="212.09" y1="451.86" x2="588.19" y2="451.86" gradientUnits="userSpaceOnUse"><stop offset="0" stop-color="#d4088c"/><stop offset="0.23" stop-color="#d4088c"/><stop offset="0.51" stop-color="#6ee1f8"/><stop offset="0.78" stop-color="#6ee8fc"/><stop offset="1" stop-color="#6ee8fc"/></linearGradient><linearGradient id="Áåçûìÿííûé_ãðàäèåíò_388-2" x1="212.09" y1="422.75" x2="588.19" y2="422.75" xlink:href="#Áåçûìÿííûé_ãðàäèåíò_388"/><linearGradient id="Áåçûìÿííûé_ãðàäèåíò_377" x1="1863.37" y1="368.79" x2="2183.46" y2="368.79" gradientTransform="translate(-1619.46)" gradientUnits="userSpaceOnUse"><stop offset="0" stop-color="#a31fa9"/><stop offset="0.07" stop-color="#8b17a0"/><stop offset="0.15" stop-color="#740f98"/><stop offset="0.24" stop-color="#640a92"/><stop offset="0.34" stop-color="#5b078f"/><stop offset="0.48" stop-color="#58068e"/><stop offset="0.63" stop-color="#4d22a3"/><stop offset="0.94" stop-color="#3168da"/><stop offset="1" stop-color="#2c75e4"/></linearGradient><linearGradient id="Áåçûìÿííûé_ãðàäèåíò_300" x1="1524.72" y1="61.99" x2="1675.71" y2="-68.77" gradientTransform="matrix(0.87, 0.5, -1, 0.58, -991.82, -527.99)" gradientUnits="userSpaceOnUse"><stop offset="0" stop-color="#8d139b"/><stop offset="0.17" stop-color="#851ba1"/><stop offset="0.43" stop-color="#6e33b2"/><stop offset="0.76" stop-color="#4958cd"/><stop offset="1" stop-color="#2979e4"/></linearGradient><linearGradient id="Áåçûìÿííûé_ãðàäèåíò_302" x1="1544.42" y1="44.93" x2="1656.82" y2="-52.42" gradientTransform="matrix(0.87, 0.5, -1, 0.58, -991.82, -527.99)" gradientUnits="userSpaceOnUse"><stop offset="0" stop-color="#630692"/><stop offset="0.23" stop-color="#5b0e94"/><stop offset="0.59" stop-color="#432399"/><stop offset="1" stop-color="#2142a1"/></linearGradient><clipPath id="clip-path"><path class="cls-1" d="M392.36,309.38l-60.21-34.75c-4.28-2.47-3.75-6.78,1.2-9.64l57.81-33.36c4.95-2.85,12.42-3.16,16.71-.69l60.21,34.75c4.28,2.47,3.75,6.78-1.2,9.64l-57.81,33.36C404.12,311.54,396.65,311.85,392.36,309.38Z"/></clipPath><linearGradient id="Áåçûìÿííûé_ãðàäèåíò_377-2" x1="1863.37" y1="267.87" x2="2183.46" y2="267.87" xlink:href="#Áåçûìÿííûé_ãðàäèåíò_377"/><linearGradient id="Áåçûìÿííûé_ãðàäèåíò_300-2" x1="1498.14" y1="38.97" x2="1649.13" y2="-91.79" xlink:href="#Áåçûìÿííûé_ãðàäèåíò_300"/><linearGradient id="Áåçûìÿííûé_ãðàäèåíò_302-2" x1="1517.83" y1="21.91" x2="1630.24" y2="-75.44" xlink:href="#Áåçûìÿííûé_ãðàäèåíò_302"/><clipPath id="clip-path-2"><path class="cls-1" d="M392.36,282.8l-60.21-34.75c-4.28-2.47-3.75-6.78,1.2-9.64l57.81-33.36c4.95-2.85,12.42-3.16,16.71-.69l60.21,34.75c4.28,2.47,3.75,6.78-1.2,9.63l-57.81,33.37C404.12,285,396.65,285.27,392.36,282.8Z"/></clipPath><linearGradient id="Áåçûìÿííûé_ãðàäèåíò_377-3" x1="1863.37" y1="245.22" x2="2183.46" y2="245.22" xlink:href="#Áåçûìÿííûé_ãðàäèåíò_377"/><linearGradient id="Áåçûìÿííûé_ãðàäèåíò_300-3" x1="1475.5" y1="19.36" x2="1626.48" y2="-111.4" xlink:href="#Áåçûìÿííûé_ãðàäèåíò_300"/><linearGradient id="Áåçûìÿííûé_ãðàäèåíò_302-3" x1="1495.19" y1="2.3" x2="1607.6" y2="-95.05" xlink:href="#Áåçûìÿííûé_ãðàäèåíò_302"/><clipPath id="clip-path-3"><path class="cls-1" d="M392.36,260.15l-60.21-34.74c-4.28-2.47-3.75-6.79,1.2-9.64l57.81-33.37c4.95-2.85,12.42-3.16,16.71-.69l60.21,34.75c4.28,2.47,3.75,6.79-1.2,9.64l-57.81,33.36C404.12,262.32,396.65,262.63,392.36,260.15Z"/></clipPath><linearGradient id="Áåçûìÿííûé_ãðàäèåíò_302-4" x1="203.6" y1="344.44" x2="505.8" y2="454.17" gradientTransform="matrix(1, 0, 0, 1, 0, 0)" xlink:href="#Áåçûìÿííûé_ãðàäèåíò_302"/></defs><g class="cls-2"><g id="Layer_1" data-name="Layer 1"><ellipse class="cls-3" cx="124.67" cy="456.16" rx="42.92" ry="42.9"/><ellipse class="cls-4" cx="180.23" cy="153.02" rx="17.78" ry="17.77"/><ellipse class="cls-5" cx="689.48" cy="326.08" rx="31.95" ry="31.93" transform="translate(-1.56 3.32) rotate(-0.28)"/><path class="cls-6" d="M697.66,455.42c-12.85,2.49-26.76-1.5-31.08-8.91s2.59-15.45,15.44-17.94,26.76,1.5,31.08,8.92S710.51,452.93,697.66,455.42Z"/><ellipse class="cls-6" cx="125.17" cy="581.34" rx="34.14" ry="19.7"/><ellipse class="cls-7" cx="180.23" cy="218.13" rx="12.26" ry="7.07"/><path class="cls-8" d="M302.21,79.1a4.55,4.55,0,1,1-4.55-4.56A4.55,4.55,0,0,1,302.21,79.1Z"/><circle class="cls-8" cx="217.84" cy="541.93" r="5.49"/><path class="cls-9" d="M185.87,517.66a2.82,2.82,0,1,1-2.82-2.82A2.82,2.82,0,0,1,185.87,517.66Z"/><path class="cls-9" d="M665.29,413.45a2.92,2.92,0,1,1-2.91-2.91A2.91,2.91,0,0,1,665.29,413.45Z"/><circle class="cls-9" cx="121.07" cy="216.5" r="4.11"/><path class="cls-9" d="M432.27,66.74a4.11,4.11,0,1,1-4.11-4.11A4.11,4.11,0,0,1,432.27,66.74Z"/><path class="cls-9" d="M141.9,207.4a2.28,2.28,0,1,1-2.27-2.28A2.27,2.27,0,0,1,141.9,207.4Z"/><path class="cls-10" d="M533.58,81.41a2.69,2.69,0,1,1-2.69-2.69A2.69,2.69,0,0,1,533.58,81.41Z"/><polygon class="cls-11" points="138.78 351.17 137.8 347.65 145.61 345.47 143.42 337.66 146.94 336.67 150.11 348 138.78 351.17"/><polygon class="cls-11" points="131.88 363.41 130.9 359.9 138.71 357.71 136.53 349.9 140.05 348.92 143.21 360.24 131.88 363.41"/><polygon class="cls-11" points="139.21 359.47 136.04 348.14 147.37 344.98 148.35 348.49 140.54 350.67 142.72 358.49 139.21 359.47"/><path class="cls-11" d="M408.85,90.09a8.69,8.69,0,1,1,8.69-8.68A8.7,8.7,0,0,1,408.85,90.09Zm0-13.72a5,5,0,1,0,5,5A5,5,0,0,0,408.85,76.37Z"/><path class="cls-11" d="M599.47,524.69l-9.86-9.86,9.86-9.86,9.87,9.86Zm-4.7-9.86,4.7,4.7,4.7-4.7-4.7-4.7Z"/><rect class="cls-12" x="625.12" y="164.01" width="3.65" height="14.93" transform="translate(62.49 493.73) rotate(-45.02)"/><rect class="cls-12" x="619.48" y="169.64" width="14.93" height="3.65" transform="translate(62.46 493.68) rotate(-45.01)"/><path class="cls-10" d="M88.34,292.42a2.69,2.69,0,1,1-2.69-2.68A2.69,2.69,0,0,1,88.34,292.42Z"/><path class="cls-13" d="M398.82,560.74c-7.35,0-14.37-1.48-19.61-4.51l-159-91.77c-5.22-3-8.09-7.22-8.09-11.85,0-5.52,4.1-11.06,11.26-15.18L376,349.31c13.29-7.66,33.48-8.49,45-1.82l159,91.77c5.21,3,8.09,7.21,8.09,11.84,0,5.53-4.11,11.06-11.26,15.19L424.24,554.4C417,558.59,407.66,560.74,398.82,560.74Zm-18.69-6.09c11,6.37,30.41,5.55,43.2-1.83L576,464.71c6.57-3.79,10.34-8.75,10.34-13.61,0-4-2.55-7.59-7.18-10.27l-159-91.77c-11-6.36-30.41-5.54-43.2,1.83L224.26,439c-6.57,3.8-10.34,8.76-10.34,13.61,0,3.95,2.55,7.6,7.17,10.27Z"/><path class="cls-14" d="M398.82,531.63c-7.35,0-14.37-1.48-19.61-4.5l-159-91.77c-5.22-3-8.09-7.22-8.09-11.85,0-5.52,4.1-11.06,11.26-15.19L376,320.21c13.29-7.67,33.49-8.49,45-1.83l159,91.77c5.21,3,8.09,7.22,8.09,11.85,0,5.52-4.11,11.06-11.26,15.19L424.24,525.3C417,529.49,407.66,531.63,398.82,531.63Zm-18.69-6.08c11,6.37,30.41,5.54,43.2-1.83L576,435.61c6.57-3.8,10.34-8.76,10.34-13.61,0-3.95-2.55-7.6-7.18-10.27L420.15,320c-11-6.37-30.41-5.55-43.2,1.83L224.26,409.9c-6.57,3.79-10.34,8.76-10.34,13.61,0,3.95,2.55,7.6,7.17,10.27Z"/><path class="cls-1" d="M382.48,541.19,245.33,462.05c-9.75-5.63-8.53-15.46,2.73-22l131.69-76c11.26-6.5,28.29-7.2,38-1.58L555,441.67c9.75,5.63,8.53,15.46-2.73,22l-131.69,76C409.27,546.12,392.24,546.82,382.48,541.19Z"/><path class="cls-15" d="M242.38,459.92a24.44,24.44,0,0,1,5.68-4.42l131.69-76c11.26-6.49,28.29-7.2,38-1.57L555,457.08a18.2,18.2,0,0,1,2.95,2.13c5.59-6,4.78-13.08-2.95-17.54L417.79,362.52c-9.75-5.62-26.78-4.92-38,1.58l-131.69,76C238.11,445.83,236,454.17,242.38,459.92Z"/><ellipse class="cls-1" cx="484.67" cy="433.31" rx="16.09" ry="16.1" transform="translate(49.99 916.75) rotate(-89.84)"/><ellipse class="cls-1" cx="518.38" cy="434.91" rx="8.17" ry="8.16"/><path class="cls-1" d="M518.58,415.65a3.24,3.24,0,1,1-3.24-3.24A3.24,3.24,0,0,1,518.58,415.65Z"/><path class="cls-16" d="M531.48,270.16H476.12L414.49,234.6c-7.94-4.58-21.81-4-31,1.28l-59.41,34.28H268.77V430.28h0c-.23,3.1,1.5,6.09,5.32,8.29L385.74,503c7.94,4.58,21.81,4,31-1.28L523.9,439.86c4.76-2.75,7.3-6.23,7.54-9.58h0Z"/><path class="cls-17" d="M529.87,270.16V432h0a9.46,9.46,0,0,1-1.92,4.83,10.39,10.39,0,0,0,3.53-6.59h0V270.16Z"/><path class="cls-18" d="M385.74,342.88,274.11,278.45c-7.94-4.58-6.95-12.58,2.22-17.87l107.19-61.85c9.16-5.29,23-5.86,31-1.28l111.63,64.42c7.94,4.58,7,12.58-2.22,17.87L416.71,341.59C407.55,346.88,393.68,347.46,385.74,342.88Z"/><path class="cls-19" d="M388,342.88,276.31,278.45c-7.94-4.58-6.94-12.58,2.22-17.87l107.19-61.85a35.68,35.68,0,0,1,16.38-4.35,36.28,36.28,0,0,0-18.58,4.35L276.33,260.58c-9.17,5.29-10.16,13.29-2.22,17.87l111.63,64.43c3.87,2.23,9.14,3.23,14.59,3.06A26.77,26.77,0,0,1,388,342.88Z"/><path class="cls-17" d="M526.12,261.87,414.49,197.45c-3.89-2.24-9.19-3.24-14.67-3.07a26.66,26.66,0,0,1,12.36,3.07l111.64,64.42c7.94,4.58,6.94,12.58-2.22,17.87L414.41,341.59a35.63,35.63,0,0,1-16.3,4.35,36.17,36.17,0,0,0,18.6-4.35L523.9,279.74C533.07,274.45,534.06,266.45,526.12,261.87Z"/><path class="cls-20" d="M389.42,324.3l-83.12-48c-5.91-3.41-5.17-9.36,1.66-13.3l79.8-46c6.82-3.94,17.14-4.36,23.05-.95l83.12,48c5.91,3.41,5.17,9.36-1.66,13.3l-79.8,46C405.65,327.28,395.33,327.71,389.42,324.3Z"/><path class="cls-1" d="M392.36,309.38l-60.21-34.75c-4.28-2.47-3.75-6.78,1.2-9.64l57.81-33.36c4.95-2.85,12.42-3.16,16.71-.69l60.21,34.75c4.28,2.47,3.75,6.78-1.2,9.64l-57.81,33.36C404.12,311.54,396.65,311.85,392.36,309.38Z"/><g class="cls-21"><path class="cls-22" d="M333.32,269.7l57.84-33.38c4.94-2.85,12.43-3.16,16.71-.69l60.24,34.76a6.41,6.41,0,0,1,2.1,1.89c1.45-2.36.83-4.9-2.1-6.59l-60.24-34.76c-4.28-2.48-11.77-2.17-16.71.69L333.32,265c-3.85,2.22-5,5.32-3.3,7.75A9.11,9.11,0,0,1,333.32,269.7Z"/><path class="cls-15" d="M333.32,275.37,391.16,242c4.94-2.85,12.43-3.16,16.71-.69l60.24,34.76a6.71,6.71,0,0,1,1.76,1.47c1.91-2.5,1.39-5.32-1.76-7.14l-60.24-34.76c-4.28-2.47-11.77-2.16-16.71.69L333.32,269.7c-4.07,2.35-5.1,5.68-3,8.17A9.77,9.77,0,0,1,333.32,275.37Z"/><path class="cls-23" d="M330.94,284.15a10.58,10.58,0,0,1,2.38-1.86l57.84-33.38c4.94-2.85,12.43-3.16,16.71-.69L468.11,283a7.8,7.8,0,0,1,1.18.86c2.54-2.65,2.25-5.8-1.18-7.78L407.87,241.3c-4.28-2.47-11.77-2.16-16.71.69l-57.84,33.38C328.9,277.92,328,281.62,330.94,284.15Z"/></g><path class="cls-24" d="M531.48,243.58H476.12L414.49,208c-7.94-4.58-21.81-4-31,1.29l-59.41,34.28H268.77V255h0c-.23,3.1,1.5,6.09,5.32,8.29l111.63,64.42c7.94,4.58,21.81,4,31-1.28L523.9,264.59c4.76-2.75,7.3-6.23,7.54-9.58h0Z"/><path class="cls-17" d="M529.87,243.58v13.19h0a9.52,9.52,0,0,1-1.92,4.84,10.44,10.44,0,0,0,3.53-6.6h0V243.58Z"/><path class="cls-25" d="M385.74,316.29,274.11,251.87c-7.94-4.58-6.95-12.58,2.22-17.87l107.19-61.85c9.16-5.29,23-5.87,31-1.29l111.63,64.43c7.94,4.58,7,12.58-2.22,17.87L416.71,315C407.55,320.3,393.68,320.87,385.74,316.29Z"/><path class="cls-19" d="M388,316.29,276.31,251.87c-7.94-4.58-6.94-12.58,2.22-17.87l107.19-61.85a35.56,35.56,0,0,1,16.38-4.35,36.08,36.08,0,0,0-18.58,4.35L276.33,234c-9.17,5.29-10.16,13.29-2.22,17.87l111.63,64.42c3.87,2.23,9.14,3.23,14.59,3.07A26.77,26.77,0,0,1,388,316.29Z"/><path class="cls-17" d="M526.12,235.29,414.49,170.86c-3.89-2.24-9.19-3.24-14.67-3.06a26.78,26.78,0,0,1,12.36,3.06l111.64,64.43c7.94,4.58,6.94,12.58-2.22,17.87L414.41,315a35.75,35.75,0,0,1-16.3,4.35,36.17,36.17,0,0,0,18.6-4.35L523.9,253.16C533.07,247.87,534.06,239.87,526.12,235.29Z"/><path class="cls-26" d="M389.42,297.71l-83.12-48c-5.91-3.41-5.17-9.36,1.66-13.3l79.8-46c6.82-3.94,17.14-4.37,23.05-1l83.12,48c5.91,3.41,5.17,9.36-1.66,13.3l-79.8,46C405.65,300.7,395.33,301.12,389.42,297.71Z"/><path class="cls-1" d="M392.36,282.8l-60.21-34.75c-4.28-2.47-3.75-6.78,1.2-9.64l57.81-33.36c4.95-2.85,12.42-3.16,16.71-.69l60.21,34.75c4.28,2.47,3.75,6.78-1.2,9.63l-57.81,33.37C404.12,285,396.65,285.27,392.36,282.8Z"/><g class="cls-27"><path class="cls-22" d="M333.32,243.11l57.84-33.37c4.94-2.86,12.43-3.17,16.71-.69l60.24,34.76a6.3,6.3,0,0,1,2.1,1.89c1.45-2.36.83-4.91-2.1-6.6l-60.24-34.76c-4.28-2.47-11.77-2.16-16.71.7l-57.84,33.37c-3.85,2.22-5,5.32-3.3,7.75A9.21,9.21,0,0,1,333.32,243.11Z"/><path class="cls-15" d="M333.32,248.78l57.84-33.37c4.94-2.86,12.43-3.17,16.71-.69l60.24,34.76a6.71,6.71,0,0,1,1.76,1.47c1.91-2.5,1.39-5.32-1.76-7.14l-60.24-34.76c-4.28-2.48-11.77-2.17-16.71.69l-57.84,33.37c-4.07,2.35-5.1,5.69-3,8.17A9.91,9.91,0,0,1,333.32,248.78Z"/><path class="cls-23" d="M330.94,257.57a10.9,10.9,0,0,1,2.38-1.87l57.84-33.37c4.94-2.86,12.43-3.17,16.71-.69l60.24,34.76a7.17,7.17,0,0,1,1.18.86c2.54-2.65,2.25-5.8-1.18-7.78l-60.24-34.76c-4.28-2.48-11.77-2.17-16.71.69l-57.84,33.37C328.9,251.33,328,255,330.94,257.57Z"/></g><path class="cls-28" d="M531.48,220.93H476.12l-61.63-35.56c-7.94-4.58-21.81-4-31,1.28l-59.41,34.28H268.77v11.43h0c-.23,3.1,1.5,6.1,5.32,8.3l111.63,64.42c7.94,4.58,21.81,4,31-1.29L523.9,241.94c4.76-2.75,7.3-6.22,7.54-9.58h0Z"/><path class="cls-17" d="M529.87,220.93v13.19h0a9.46,9.46,0,0,1-1.92,4.84,10.44,10.44,0,0,0,3.53-6.6h0V220.93Z"/><path class="cls-29" d="M385.74,293.65,274.11,229.23c-7.94-4.58-6.95-12.59,2.22-17.87L383.52,149.5c9.16-5.29,23-5.86,31-1.28l111.63,64.42c7.94,4.58,7,12.58-2.22,17.87L416.71,292.36C407.55,297.65,393.68,298.23,385.74,293.65Z"/><path class="cls-19" d="M388,293.65,276.31,229.23c-7.94-4.58-6.94-12.59,2.22-17.87L385.72,149.5a35.8,35.8,0,0,1,16.38-4.35,36.28,36.28,0,0,0-18.58,4.35L276.33,211.36c-9.17,5.28-10.16,13.29-2.22,17.87l111.63,64.42c3.87,2.23,9.14,3.23,14.59,3.06A26.65,26.65,0,0,1,388,293.65Z"/><path class="cls-17" d="M526.12,212.64,414.49,148.22c-3.89-2.24-9.19-3.24-14.67-3.07a26.66,26.66,0,0,1,12.36,3.07l111.64,64.42c7.94,4.58,6.94,12.58-2.22,17.87L414.41,292.36a35.51,35.51,0,0,1-16.3,4.35,36.17,36.17,0,0,0,18.6-4.35L523.9,230.51C533.07,225.22,534.06,217.22,526.12,212.64Z"/><path class="cls-30" d="M389.42,275.07l-83.12-48c-5.91-3.41-5.17-9.37,1.66-13.31l79.8-46.05c6.82-3.94,17.14-4.36,23.05-.95l83.12,48c5.91,3.41,5.17,9.37-1.66,13.3l-79.8,46.05C405.65,278.05,395.33,278.48,389.42,275.07Z"/><path class="cls-1" d="M392.36,260.15l-60.21-34.74c-4.28-2.47-3.75-6.79,1.2-9.64l57.81-33.37c4.95-2.85,12.42-3.16,16.71-.69l60.21,34.75c4.28,2.47,3.75,6.79-1.2,9.64l-57.81,33.36C404.12,262.32,396.65,262.63,392.36,260.15Z"/><g class="cls-31"><path class="cls-22" d="M333.32,220.47l57.84-33.38c4.94-2.85,12.43-3.16,16.71-.69l60.24,34.76a6.41,6.41,0,0,1,2.1,1.89c1.45-2.36.83-4.9-2.1-6.59L407.87,181.7c-4.28-2.47-11.77-2.16-16.71.69l-57.84,33.38c-3.85,2.22-5,5.31-3.3,7.75A9,9,0,0,1,333.32,220.47Z"/><path class="cls-15" d="M333.32,226.14l57.84-33.38c4.94-2.85,12.43-3.16,16.71-.69l60.24,34.76a6.9,6.9,0,0,1,1.76,1.47c1.91-2.5,1.39-5.32-1.76-7.14L407.87,186.4c-4.28-2.47-11.77-2.16-16.71.69l-57.84,33.38c-4.07,2.35-5.1,5.68-3,8.17A9.77,9.77,0,0,1,333.32,226.14Z"/><path class="cls-23" d="M330.94,234.92a10.87,10.87,0,0,1,2.38-1.86l57.84-33.38c4.94-2.85,12.43-3.16,16.71-.69l60.24,34.76a7.8,7.8,0,0,1,1.18.86c2.54-2.65,2.25-5.8-1.18-7.78l-60.24-34.76c-4.28-2.47-11.77-2.16-16.71.69l-57.84,33.38C328.9,228.69,328,232.4,330.94,234.92Z"/></g><path class="cls-32" d="M377.57,478.85l-90.68-52.33c-2.44-1.41-4.42-5.19-4.42-8.44V306.79c0-3.25,2-4.75,4.42-3.34l90.68,52.33C380,357.19,382,361,382,364.22V475.51C382,478.76,380,480.26,377.57,478.85Z"/><path class="cls-1" d="M379.19,478.16l-90.68-52.32c-2.44-1.41-4.42-5.19-4.42-8.45V306.11a4.38,4.38,0,0,1,1.07-3.19c-1.58,0-2.69,1.44-2.69,3.87V418.08c0,3.25,2,7,4.42,8.44l90.68,52.33a2.62,2.62,0,0,0,3.35-.16A3.47,3.47,0,0,1,379.19,478.16Z"/><path class="cls-1" d="M364.25,453.08l-64-36.95a7.47,7.47,0,0,1-3.12-6V331.58c0-2.29,1.39-3.35,3.12-2.35l64,36.94a7.5,7.5,0,0,1,3.12,6v78.58C367.37,453,366,454.07,364.25,453.08Z"/><path class="cls-22" d="M304.63,413.19a7.45,7.45,0,0,1-3.13-6V330l-1.28-.74c-1.73-1-3.12.06-3.12,2.35v78.59a7.47,7.47,0,0,0,3.12,6l64,36.95c1.72,1,3.12-.07,3.12-2.36V449.4Z"/><polygon class="cls-22" points="321.67 363 308.62 355.47 308.62 353.25 321.67 360.79 321.67 363"/><polygon class="cls-23" points="332.04 368.99 325.51 365.22 325.51 363 332.04 366.77 332.04 368.99"/><polygon class="cls-22" points="341.98 374.72 335.45 370.95 335.45 368.74 341.98 372.51 341.98 374.72"/><polygon class="cls-22" points="351.91 380.46 345.39 376.69 345.39 374.47 351.91 378.24 351.91 380.46"/><polygon class="cls-22" points="321.67 368.32 308.62 360.79 308.62 358.57 321.67 366.11 321.67 368.32"/><polygon class="cls-23" points="332.04 374.31 325.51 370.54 325.51 368.32 332.04 372.09 332.04 374.31"/><polygon class="cls-22" points="341.98 380.04 335.45 376.27 335.45 374.06 341.98 377.82 341.98 380.04"/><polygon class="cls-22" points="351.91 385.77 345.39 382.01 345.39 379.79 351.91 383.56 351.91 385.77"/><polygon class="cls-22" points="321.67 373.64 308.62 366.11 308.62 363.89 321.67 371.43 321.67 373.64"/><polygon class="cls-22" points="337.03 380.29 335.45 379.38 325.51 373.64 325.51 375.86 335.45 381.59 337.03 382.51 341.98 385.36 341.98 383.14 337.03 380.29"/><polygon class="cls-22" points="351.91 391.09 345.39 387.33 345.39 385.11 351.91 388.88 351.91 391.09"/><polygon class="cls-22" points="355.32 380.21 355.32 385.52 355.32 387.74 355.32 390.84 355.32 391.48 355.32 393.06 361.85 396.83 361.85 395.25 361.85 394.61 361.85 391.51 361.85 389.29 361.85 383.97 355.32 380.21"/><polygon class="cls-23" points="321.67 378.96 308.62 371.43 308.62 369.21 321.67 376.74 321.67 378.96"/><polygon class="cls-22" points="332.04 384.94 325.51 381.18 325.51 378.96 332.04 382.73 332.04 384.94"/><polygon class="cls-22" points="341.98 388.46 340.23 387.45 335.45 384.69 335.45 386.91 340.23 389.67 341.98 390.68 351.91 396.41 351.91 394.19 341.98 388.46"/><polygon class="cls-22" points="361.85 402.14 355.32 398.38 355.32 396.16 361.85 399.93 361.85 402.14"/><polygon class="cls-22" points="321.67 394.92 308.62 387.38 308.62 385.17 321.67 392.7 321.67 394.92"/><polygon class="cls-22" points="332.04 400.9 325.51 397.13 325.51 394.92 332.04 398.68 332.04 400.9"/><polygon class="cls-22" points="341.98 404.42 340.23 403.41 335.45 400.65 335.45 402.87 340.23 405.63 341.98 406.63 351.91 412.37 351.91 410.15 341.98 404.42"/><polygon class="cls-22" points="361.85 418.1 355.32 414.33 355.32 412.12 361.85 415.88 361.85 418.1"/><polygon class="cls-22" points="321.67 400.23 308.62 392.7 308.62 390.48 321.67 398.02 321.67 400.23"/><polygon class="cls-22" points="332.04 406.22 325.51 402.45 325.51 400.23 332.04 404 332.04 406.22"/><polygon class="cls-22" points="361.85 423.42 355.32 419.65 355.32 417.44 361.85 421.2 361.85 423.42"/><polygon class="cls-22" points="321.67 405.55 308.62 398.02 308.62 395.8 321.67 403.34 321.67 405.55"/><polygon class="cls-22" points="332.04 411.54 325.51 407.77 325.51 405.55 332.04 409.32 332.04 411.54"/><polygon class="cls-23" points="341.98 409.74 340.23 408.73 335.45 405.97 335.45 407.52 335.45 408.18 335.45 413.5 340.23 416.26 341.98 417.27 351.91 423 351.91 417.69 351.91 417.02 351.91 415.47 341.98 409.74"/><polygon class="cls-22" points="361.85 428.74 355.32 424.97 355.32 422.75 361.85 426.52 361.85 428.74"/><polygon class="cls-22" points="321.67 384.28 308.62 376.74 308.62 374.53 321.67 382.06 321.67 384.28"/><polygon class="cls-23" points="332.04 390.26 325.51 386.49 325.51 384.28 332.04 388.05 332.04 390.26"/><polygon class="cls-22" points="351.91 401.73 345.39 397.96 345.39 395.75 351.91 399.51 351.91 401.73"/><polygon class="cls-22" points="361.85 407.46 355.32 403.7 355.32 401.48 361.85 405.25 361.85 407.46"/><polygon class="cls-22" points="321.67 389.6 308.62 382.06 308.62 379.85 321.67 387.38 321.67 389.6"/><polygon class="cls-22" points="332.04 395.58 325.51 391.81 325.51 389.6 332.04 393.36 332.04 395.58"/><polygon class="cls-23" points="335.45 390.01 335.45 391.12 335.45 392.23 335.45 397.55 341.98 401.31 341.98 396 341.98 394.89 341.98 393.78 335.45 390.01"/><polygon class="cls-22" points="351.91 407.05 345.39 403.28 345.39 401.06 351.91 404.83 351.91 407.05"/><polygon class="cls-22" points="361.85 412.78 355.32 409.01 355.32 406.8 361.85 410.57 361.85 412.78"/><path class="cls-33" d="M419.43,477.11a2.57,2.57,0,0,1-1.33-.35c-1.08-.62-1.7-2-1.7-3.82V372.19c0-3.24,2-7,4.45-8.44l88.6-51.13a3.16,3.16,0,0,1,3.24-.22c1.08.62,1.7,2,1.7,3.82V417c0,3.24-2,7-4.44,8.44l-88.6,51.13A3.87,3.87,0,0,1,419.43,477.11ZM511.36,313a2.87,2.87,0,0,0-1.41.44l-88.6,51.13c-2.18,1.25-4,4.65-4,7.58V472.94a3.29,3.29,0,0,0,1.2,3,2.21,2.21,0,0,0,2.25-.22l88.6-51.13.25.43-.25-.43c2.17-1.25,3.94-4.65,3.94-7.58V316.22a3.29,3.29,0,0,0-1.2-3A1.69,1.69,0,0,0,511.36,313Z"/></g></g></svg>